<svg xmlns="http://www.w3.org/2000/svg" xmlns:xlink="http://www.w3.org/1999/xlink" width="1080" zoomAndPan="magnify" viewBox="0 0 810 817.92" height="1080" preserveAspectRatio="xMidYMid meet" version="1.0"><defs><clipPath id="8b2cb8bd70"><path d="M 343 295 L 424 295 L 424 716.929688 L 343 716.929688 Z M 343 295 " clip-rule="nonzero"/></clipPath></defs><path fill="#5ea833" d="M 449.558594 373.21875 C 449.558594 373.21875 449.558594 373.074219 449.703125 373.074219 C 449.558594 373.074219 449.558594 373.074219 449.558594 373.21875 Z M 449.558594 373.21875 " fill-opacity="1" fill-rule="nonzero"/><path fill="#5ea833" d="M 448.257812 359.046875 C 448.257812 357.890625 449.269531 357.023438 450.28125 357.023438 C 451.4375 357.023438 452.304688 358.035156 452.304688 359.046875 C 452.304688 360.203125 451.292969 361.074219 450.28125 361.074219 C 449.125 361.21875 448.257812 360.203125 448.257812 359.046875 Z M 448.257812 359.046875 " fill-opacity="1" fill-rule="nonzero"/><path fill="#5ea833" d="M 448.546875 357.3125 C 446.667969 353.261719 453.75 351.816406 456.351562 352.972656 C 457.507812 353.695312 457.21875 355.433594 456.0625 355.867188 C 453.460938 356.589844 450.859375 360.785156 448.546875 357.3125 Z M 448.546875 357.3125 " fill-opacity="1" fill-rule="nonzero"/><path fill="#5ea833" d="M 361.101562 244.949219 C 359.511719 244.949219 358.5 243.503906 358.644531 242.054688 C 358.066406 241.332031 357.34375 240.753906 356.765625 240.175781 C 357.921875 240.753906 359.078125 241.332031 360.378906 241.910156 C 361.390625 242.34375 362.402344 242.925781 363.558594 243.359375 C 362.980469 243.9375 362.402344 244.515625 361.101562 244.949219 C 361.246094 244.949219 361.101562 244.949219 361.101562 244.949219 Z M 361.101562 244.949219 " fill-opacity="1" fill-rule="nonzero"/><path fill="#5ea833" d="M 446.234375 385.367188 C 450.570312 382.1875 466.902344 347.625 453.171875 352.394531 C 452.160156 353.695312 451.292969 355 450.570312 356.445312 C 450.28125 355.578125 450.136719 354.566406 449.847656 353.695312 C 449.703125 348.492188 449.558594 343.140625 448.980469 337.933594 C 448.257812 332.4375 449.847656 326.945312 449.125 321.449219 C 447.246094 317.253906 442.621094 319.425781 440.164062 321.738281 C 437.707031 314.941406 436.984375 307.566406 433.949219 301.058594 C 433.804688 300.914062 433.660156 300.914062 433.515625 300.769531 C 432.359375 299.902344 431.203125 298.890625 430.046875 297.875 C 429.902344 297.875 429.757812 297.875 429.613281 297.875 C 425.855469 297.730469 424.265625 300.769531 423.253906 304.09375 C 419.640625 300.769531 415.882812 297.585938 412.269531 294.40625 C 404.03125 287.175781 395.503906 280.234375 386.832031 273.4375 C 381.773438 269.53125 376.566406 265.628906 371.363281 262.011719 C 371.363281 262.011719 371.507812 262.011719 371.507812 262.15625 C 371.507812 262.15625 371.363281 262.011719 371.363281 262.011719 C 371.363281 262.011719 371.21875 261.867188 371.074219 261.867188 C 371.074219 261.867188 371.074219 261.867188 371.21875 261.867188 C 371.21875 261.867188 371.074219 261.867188 371.074219 261.722656 C 371.074219 261.722656 370.929688 261.578125 370.929688 261.578125 C 369.339844 260.566406 367.75 259.554688 366.304688 258.398438 C 355.609375 252.46875 344.769531 246.828125 333.785156 241.476562 C 328.148438 238.730469 322.367188 236.5625 316.441406 234.390625 C 312.539062 232.945312 308.492188 231.644531 304.589844 230.488281 C 306.179688 228.753906 302.566406 226.726562 300.832031 225.859375 C 300.398438 225.570312 299.820312 225.425781 299.386719 225.136719 C 299.242188 225.136719 299.242188 225.136719 299.097656 225.136719 C 297.796875 224.847656 296.640625 224.558594 295.339844 224.269531 C 293.171875 223.691406 291.4375 222.246094 289.992188 220.363281 C 289.992188 220.21875 289.847656 220.21875 289.847656 220.074219 C 288.546875 219.496094 287.246094 218.773438 286.089844 218.195312 C 284.066406 217.761719 281.898438 217.183594 279.875 216.605469 C 279.585938 216.460938 279.296875 216.460938 279.007812 216.316406 C 275.101562 217.183594 275.96875 220.652344 278.285156 224.414062 C 277.851562 224.269531 277.5625 224.269531 277.125 224.125 C 271.777344 220.652344 266.285156 217.039062 259.925781 215.304688 C 258.335938 215.015625 256.890625 215.015625 255.734375 216.027344 C 254.289062 217.472656 254 218.917969 254.433594 220.21875 C 253.566406 220.074219 252.84375 219.929688 251.976562 219.785156 C 251.832031 219.785156 251.6875 219.785156 251.6875 219.785156 C 248.507812 218.628906 245.328125 217.617188 242.292969 216.171875 C 236.511719 213.710938 228.707031 208.796875 228.417969 218.917969 C 228.417969 218.917969 228.273438 218.917969 228.273438 218.917969 C 221.769531 216.894531 214.976562 213.132812 208.183594 213.566406 C 204.859375 215.015625 206.160156 218.917969 208.617188 221.519531 C 208.328125 221.519531 208.039062 221.664062 207.605469 221.664062 C 202.691406 221.375 197.921875 220.941406 193.007812 219.929688 C 190.117188 219.0625 186.503906 217.617188 185.492188 221.664062 C 185.058594 223.546875 185.492188 224.992188 186.214844 226.4375 C 185.203125 226.4375 184.335938 226.582031 183.613281 226.4375 C 177.6875 226.726562 171.613281 224.703125 165.6875 225.714844 C 162.796875 227.449219 163.664062 230.199219 165.398438 232.511719 C 160.050781 232.367188 154.847656 231.5 149.644531 230.921875 C 148.488281 230.921875 147.476562 231.210938 146.753906 232.078125 C 145.164062 234.246094 146.175781 236.273438 147.910156 238.007812 C 146.609375 238.441406 145.308594 238.730469 144.007812 239.164062 C 142.851562 239.164062 141.695312 239.164062 140.683594 238.875 C 136.636719 238.296875 132.734375 237.429688 128.6875 236.5625 C 123.917969 236.851562 123.773438 239.742188 125.363281 242.78125 C 115.101562 242.054688 98.335938 239.597656 104.261719 248.128906 C 100.214844 248.417969 96.167969 248.273438 91.832031 247.984375 C 87.785156 247.40625 80.847656 247.695312 83.160156 253.480469 C 78.679688 254.492188 74.195312 255.792969 69.859375 256.953125 C 69.714844 256.953125 69.425781 257.097656 69.28125 257.242188 C 68.558594 257.386719 67.835938 257.53125 66.96875 257.675781 C 46.878906 260.855469 63.933594 269.675781 78.101562 275.894531 C 79.691406 277.195312 81.28125 278.5 82.871094 279.800781 C 85.183594 281.679688 87.351562 283.703125 89.664062 285.585938 C 93.855469 289.199219 98.046875 293.105469 102.09375 296.863281 C 110.910156 305.109375 119.292969 313.640625 127.675781 322.316406 C 130.855469 325.496094 133.890625 328.824219 137.070312 332.003906 C 136.925781 331.859375 136.78125 331.714844 136.78125 331.570312 C 136.925781 331.714844 137.070312 331.859375 137.214844 332.003906 C 139.527344 334.464844 141.839844 336.921875 144.152344 339.378906 C 147.621094 343.140625 151.089844 346.757812 154.558594 350.660156 C 154.414062 350.515625 154.414062 350.515625 154.269531 350.371094 C 158.171875 354.710938 162.21875 359.191406 165.976562 363.675781 C 167.710938 365.699219 169.589844 367.726562 171.324219 369.894531 C 171.46875 370.039062 171.613281 370.183594 171.757812 370.328125 C 171.757812 370.328125 171.902344 370.472656 171.902344 370.472656 C 172.335938 371.050781 172.914062 371.773438 173.347656 372.351562 C 174.503906 373.507812 175.804688 374.667969 176.964844 375.824219 C 182.746094 381.898438 188.671875 387.824219 194.742188 393.609375 C 198.933594 397.660156 203.269531 401.417969 207.75 405.324219 C 208.472656 405.902344 209.195312 406.480469 209.773438 407.058594 C 233.1875 429.761719 254.433594 455.503906 282.765625 472.28125 C 294.472656 479.511719 306.613281 482.835938 318.03125 482.835938 C 344.046875 482.835938 365.726562 464.757812 367.605469 432.800781 C 367.605469 430.34375 368.328125 425.714844 368.617188 421.230469 C 371.652344 420.796875 374.976562 420.796875 377.867188 421.085938 C 378.15625 422.242188 379.3125 423.257812 380.90625 422.386719 C 381.050781 422.386719 381.339844 422.386719 381.484375 422.386719 C 383.941406 422.53125 386.253906 422.964844 388.710938 422.964844 C 398.972656 423.546875 409.523438 421.519531 418.773438 417.039062 C 420.507812 416.023438 422.964844 415.445312 423.6875 413.421875 C 424.265625 411.398438 422.386719 409.953125 420.507812 410.097656 C 429.324219 407.347656 436.550781 401.273438 442.476562 394.332031 C 444.5 392.308594 450.714844 387.390625 446.234375 385.367188 Z M 292.304688 227.304688 C 290.570312 227.015625 288.835938 226.582031 287.246094 226.292969 C 287.246094 226.292969 287.101562 226.292969 287.101562 226.292969 C 286.523438 225.570312 285.945312 224.847656 285.511719 224.125 C 288.980469 225.136719 292.449219 226.726562 295.773438 228.316406 C 294.617188 227.882812 293.460938 227.59375 292.304688 227.304688 Z M 292.304688 227.304688 " fill-opacity="1" fill-rule="nonzero"/><path fill="#58912d" d="M 374.253906 424.558594 C 367.027344 411.832031 358.644531 398.960938 350.695312 386.378906 C 342.601562 370.183594 330.171875 356.734375 317.019531 344.585938 C 289.269531 320.292969 256.3125 301.78125 221.480469 290.066406 C 191.417969 280.8125 159.617188 279.511719 128.6875 274.59375 C 113.945312 272.859375 98.914062 271.414062 84.75 266.785156 C 83.738281 266.496094 83.160156 265.484375 83.449219 264.472656 C 83.738281 263.460938 84.75 262.878906 85.761719 263.167969 C 92.699219 265.484375 99.78125 266.929688 107.007812 267.796875 C 141.550781 271.992188 176.386719 272.425781 210.207031 280.957031 C 259.636719 295.128906 307.914062 319.425781 342.3125 358.324219 C 351.851562 368.59375 357.199219 381.753906 364.714844 393.464844 C 367.171875 397.949219 384.808594 426.003906 374.253906 424.558594 Z M 374.253906 424.558594 " fill-opacity="1" fill-rule="nonzero"/><path fill="#58912d" d="M 135.046875 274.015625 C 126.664062 272.28125 121.75 265.195312 115.96875 259.554688 C 113.222656 257.242188 110.621094 255.070312 107.585938 253.335938 C 106.863281 252.902344 106.71875 252.035156 107.007812 251.3125 C 107.441406 250.589844 108.308594 250.445312 109.03125 250.878906 C 118.136719 255.359375 123.339844 264.617188 131.433594 269.964844 C 132.878906 271.269531 136.78125 270.691406 136.636719 273.148438 C 136.347656 273.726562 135.625 274.160156 135.046875 274.015625 Z M 135.046875 274.015625 " fill-opacity="1" fill-rule="nonzero"/><path fill="#58912d" d="M 108.886719 290.5 C 107.875 290.5 107.007812 290.210938 105.996094 290.066406 C 104.261719 289.488281 104.984375 287.175781 106.574219 287.175781 C 115.246094 285.441406 120.449219 277.777344 128.6875 275.027344 C 131.578125 273.871094 145.453125 268.808594 145.453125 274.015625 C 145.019531 275.027344 144.007812 274.882812 143.285156 274.59375 C 129.554688 273.4375 122.761719 291.371094 108.886719 290.5 Z M 108.886719 290.5 " fill-opacity="1" fill-rule="nonzero"/><path fill="#58912d" d="M 190.117188 278.644531 C 174.070312 270.402344 161.351562 256.226562 144.730469 248.707031 C 144.007812 248.273438 143.574219 247.261719 144.007812 246.394531 C 144.441406 245.527344 145.597656 244.949219 146.464844 245.382812 C 149.933594 246.828125 153.257812 248.273438 156.4375 250.15625 C 167.710938 256.808594 177.832031 265.917969 187.515625 274.449219 C 188.671875 275.027344 189.683594 275.75 190.839844 276.039062 C 192.429688 276.472656 191.707031 279.078125 190.117188 278.644531 Z M 190.117188 278.644531 " fill-opacity="1" fill-rule="nonzero"/><path fill="#58912d" d="M 140.972656 314.941406 C 140.683594 313.640625 141.40625 312.339844 142.707031 312.046875 C 151.234375 310.3125 159.472656 306.265625 166.121094 300.914062 C 174.792969 293.105469 182.3125 282.691406 194.164062 279.800781 C 194.886719 279.65625 195.609375 279.945312 196.042969 280.523438 C 197.054688 281.679688 195.753906 283.558594 194.308594 283.269531 C 178.121094 290.066406 171.757812 310.023438 153.835938 314.652344 C 150.511719 315.808594 146.898438 316.386719 143.429688 316.675781 C 142.128906 316.675781 141.261719 315.953125 140.972656 314.941406 Z M 140.972656 314.941406 " fill-opacity="1" fill-rule="nonzero"/><path fill="#58912d" d="M 252.699219 298.746094 C 240.847656 279.945312 232.898438 258.542969 211.941406 247.695312 C 209.484375 245.960938 206.882812 244.371094 204.136719 243.070312 C 203.125 242.488281 202.835938 241.1875 203.269531 240.175781 C 205.582031 236.707031 210.207031 241.1875 213.097656 242.199219 C 233.621094 251.457031 242.726562 271.992188 251.832031 291.078125 C 252.554688 293.539062 257.035156 297.007812 255.15625 299.324219 C 254.144531 299.757812 253.132812 299.613281 252.699219 298.746094 Z M 252.699219 298.746094 " fill-opacity="1" fill-rule="nonzero"/><path fill="#58912d" d="M 174.648438 344.875 C 171.613281 344.875 171.324219 340.25 174.359375 339.8125 C 183.46875 338.222656 193.152344 338.078125 201.96875 335.332031 C 216.566406 330.125 230.007812 322.605469 242.148438 313.0625 C 248.363281 309.15625 254.722656 301.347656 262.960938 303.226562 C 265.273438 304.238281 263.394531 308 261.226562 306.554688 C 260.648438 306.410156 259.925781 306.554688 259.492188 306.554688 C 248.074219 311.324219 239.835938 321.59375 229.71875 328.390625 C 213.675781 340.105469 194.308594 346.320312 174.648438 344.875 Z M 174.648438 344.875 " fill-opacity="1" fill-rule="nonzero"/><path fill="#58912d" d="M 310.804688 305.105469 C 298.085938 296.285156 297.074219 277.488281 289.125 264.90625 C 284.789062 255.9375 276.835938 249.574219 269.753906 243.070312 C 269.175781 242.488281 269.03125 241.621094 269.464844 241.042969 C 269.898438 240.464844 270.910156 240.320312 271.488281 240.753906 C 280.019531 248.417969 288.691406 256.515625 293.027344 267.507812 C 299.820312 278.789062 300.6875 294.261719 311.382812 302.792969 C 313.117188 303.082031 312.539062 305.6875 310.804688 305.105469 Z M 310.804688 305.105469 " fill-opacity="1" fill-rule="nonzero"/><path fill="#58912d" d="M 321.933594 462.878906 C 321.5 462.300781 321.644531 461.433594 322.222656 461 C 327.570312 457.527344 332.628906 453.046875 336.242188 447.839844 C 348.527344 425.425781 342.601562 398.09375 335.085938 375.101562 C 333.496094 373.21875 336.097656 370.617188 337.6875 372.929688 C 344.335938 391.730469 350.695312 411.832031 345.925781 431.933594 C 343.902344 445.382812 335.230469 456.371094 323.667969 463.167969 C 323.234375 463.601562 322.367188 463.457031 321.933594 462.878906 Z M 321.933594 462.878906 " fill-opacity="1" fill-rule="nonzero"/><path fill="#58912d" d="M 281.753906 458.976562 C 281.320312 458.109375 281.609375 456.949219 282.476562 456.515625 C 287.101562 453.769531 292.59375 452.035156 296.207031 447.984375 C 309.503906 427.59375 321.210938 403.011719 319.332031 378.136719 C 318.464844 375.390625 322.222656 375.390625 322.078125 378.425781 C 323.378906 398.09375 317.453125 417.472656 308.203125 434.390625 C 303.433594 445.527344 296.207031 455.792969 284.066406 459.699219 C 283.199219 460.132812 282.1875 459.699219 281.753906 458.976562 Z M 281.753906 458.976562 " fill-opacity="1" fill-rule="nonzero"/><path fill="#58912d" d="M 363.558594 380.160156 C 361.101562 379.582031 362.113281 375.535156 364.570312 376.113281 C 387.265625 364.253906 396.226562 334.03125 395.648438 309.878906 C 395.359375 307.855469 398.539062 307.132812 398.972656 309.15625 C 402.152344 328.101562 397.09375 349.792969 384.375 364.398438 C 378.589844 370.761719 372.230469 378.714844 363.558594 380.160156 Z M 363.558594 380.160156 " fill-opacity="1" fill-rule="nonzero"/><path fill="#58912d" d="M 393.191406 393.753906 C 381.195312 392.597656 367.75 387.679688 360.523438 377.703125 C 359.65625 376.546875 359.511719 373.652344 361.679688 374.085938 C 363.125 374.519531 362.257812 376.113281 363.125 376.980469 C 368.90625 383.632812 378.15625 386.378906 386.398438 388.402344 C 413.425781 394.042969 431.058594 370.328125 433.371094 345.886719 C 433.515625 344.875 434.671875 344.007812 435.683594 344.152344 C 441.175781 345.453125 430.191406 369.171875 428.167969 372.929688 C 421.664062 385.65625 407.5 394.042969 393.191406 393.753906 Z M 393.191406 393.753906 " fill-opacity="1" fill-rule="nonzero"/><g clip-path="url(#8b2cb8bd70)"><path fill="#58912d" d="M 417.183594 716.675781 C 417.039062 716.675781 416.75 716.675781 416.605469 716.675781 C 415.738281 716.675781 414.871094 716.53125 414.003906 716.386719 C 412.847656 716.242188 411.691406 715.953125 410.535156 715.519531 C 410.246094 715.375 409.957031 715.375 409.667969 715.230469 C 409.523438 715.230469 409.523438 715.085938 409.378906 715.085938 C 408.800781 714.792969 408.078125 714.359375 407.5 713.925781 C 407.644531 713.925781 407.644531 714.070312 407.789062 714.070312 C 404.753906 711.902344 402.007812 709.445312 399.261719 706.839844 C 398.828125 706.40625 398.394531 705.828125 397.816406 705.394531 C 390.300781 596.644531 380.183594 488.476562 359.65625 381.171875 C 356.476562 365.554688 353.152344 350.082031 349.539062 334.464844 C 348.238281 321.882812 335.085938 300.480469 353.296875 295.996094 C 361.390625 294.839844 366.304688 302.070312 366.59375 309.300781 C 369.195312 321.59375 372.664062 333.742188 375.410156 345.886719 C 402.585938 466.496094 414.582031 590.285156 423.6875 713.636719 C 422.820312 714.214844 421.953125 714.648438 421.085938 715.085938 C 420.363281 715.519531 419.640625 715.808594 418.773438 716.097656 C 418.917969 716.097656 418.917969 715.953125 419.0625 715.953125 C 418.773438 716.097656 418.484375 716.097656 418.195312 716.242188 C 418.195312 716.242188 418.195312 716.242188 418.050781 716.242188 C 418.050781 716.242188 417.90625 716.242188 417.90625 716.242188 C 417.90625 716.242188 418.050781 716.242188 418.050781 716.242188 C 417.90625 716.53125 417.617188 716.675781 417.183594 716.675781 C 417.328125 716.675781 417.328125 716.675781 417.472656 716.675781 C 417.472656 716.675781 417.328125 716.675781 417.183594 716.675781 C 417.328125 716.675781 417.328125 716.675781 417.183594 716.675781 C 417.328125 716.675781 417.328125 716.675781 417.183594 716.675781 C 417.328125 716.675781 417.328125 716.675781 417.183594 716.675781 Z M 417.183594 716.675781 " fill-opacity="1" fill-rule="nonzero"/></g><path fill="#73c741" d="M 601.324219 86.019531 C 601.46875 90.503906 596.554688 93.539062 594.242188 96.71875 C 591.351562 99.902344 588.75 103.226562 586.292969 106.699219 C 593.808594 105.6875 576.171875 129.835938 571.257812 134.464844 C 575.449219 138.222656 565.042969 143.574219 563.019531 146.757812 C 562.007812 147.914062 560.851562 148.925781 559.839844 150.082031 C 559.839844 150.082031 559.984375 150.082031 559.984375 150.082031 C 571.402344 150.515625 551.023438 168.160156 548.855469 171.628906 C 551.023438 170.761719 553.480469 172.640625 552.902344 175.101562 C 549.433594 180.742188 542.929688 183.921875 538.160156 188.40625 C 538.160156 188.550781 538.015625 188.695312 538.015625 188.695312 C 539.75 187.972656 542.351562 187.828125 542.929688 189.996094 C 543.21875 190.863281 542.929688 192.019531 542.351562 192.742188 C 537.871094 198.671875 531.945312 202.867188 526.597656 207.78125 C 526.164062 208.507812 525.730469 209.375 525.152344 210.097656 C 528.042969 209.664062 528.476562 213.710938 526.164062 215.882812 C 524.863281 217.761719 519.515625 223.980469 514.457031 228.460938 C 521.828125 229.621094 509.109375 242.925781 504.484375 247.261719 C 502.027344 249.722656 498.992188 252.179688 496.535156 254.347656 C 496.390625 254.492188 496.246094 254.636719 496.101562 254.78125 C 497.402344 255.214844 497.980469 256.226562 497.691406 258.542969 C 492.34375 264.328125 485.695312 269.53125 478.320312 273.292969 C 479.621094 273.148438 480.78125 273.726562 481.648438 274.738281 C 483.527344 277.050781 481.648438 280.523438 478.898438 280.957031 C 470.226562 285.152344 460.976562 289.054688 451.4375 291.371094 C 451.871094 291.660156 452.304688 292.09375 452.449219 292.816406 C 453.027344 296.285156 448.402344 296.140625 446.089844 297.007812 C 441.03125 298.457031 435.972656 300.191406 430.769531 301.347656 C 431.78125 302.070312 432.359375 303.082031 431.78125 304.671875 C 431.058594 306.699219 428.457031 306.988281 426.578125 307.566406 C 420.796875 309.300781 414.726562 309.011719 408.945312 310.746094 C 418.195312 320.292969 389.722656 320.582031 382.496094 320.582031 C 382.351562 320.582031 382.351562 320.726562 382.207031 320.726562 C 375.988281 323.617188 369.050781 329.835938 361.824219 326.65625 C 356.332031 323.039062 357.488281 314.796875 356.332031 309.011719 C 355.175781 292.671875 353.730469 275.894531 358.644531 259.988281 C 362.257812 244.082031 370.640625 230.34375 381.050781 217.90625 C 388.421875 204.890625 394.203125 190.863281 404.753906 179.871094 C 408.367188 175.535156 412.125 171.339844 416.027344 167.292969 C 420.507812 161.796875 425.421875 156.445312 429.613281 150.660156 C 433.515625 146.46875 436.40625 140.539062 441.03125 137.355469 C 443.054688 136.777344 444.5 138.804688 444.066406 140.683594 C 449.703125 134.320312 454.761719 126.945312 461.699219 122.027344 C 462.277344 121.738281 463 121.882812 463.578125 122.316406 C 464.011719 122.75 464.300781 123.328125 464.300781 123.90625 C 464.15625 124.339844 464.011719 124.777344 463.867188 125.066406 C 469.070312 121.449219 475.71875 117.691406 477.164062 116.53125 C 480.925781 114.796875 489.019531 105.6875 491.042969 111.039062 C 493.789062 109.589844 496.679688 108.289062 499.570312 107.132812 C 508.820312 100.191406 522.550781 91.660156 522.261719 98.890625 C 523.273438 98.601562 524.285156 98.3125 525.296875 98.023438 C 531.511719 93.828125 537.148438 88.765625 544.375 87.175781 C 548.710938 87.898438 546.832031 90.792969 544.808594 93.25 C 545.53125 93.105469 546.253906 92.960938 547.121094 92.816406 C 553.480469 89.054688 559.984375 85.585938 567.210938 84.140625 C 568.367188 83.996094 569.8125 84.140625 570.535156 85.296875 C 571.113281 86.453125 570.679688 87.464844 569.8125 88.332031 C 577.039062 87.03125 584.125 85.875 591.207031 84.574219 C 594.53125 84.140625 600.023438 81.246094 601.324219 86.019531 Z M 601.324219 86.019531 " fill-opacity="1" fill-rule="nonzero"/><path fill="#5fa834" d="M 370.929688 305.542969 C 366.738281 304.238281 374.832031 293.105469 375.410156 290.066406 C 391.457031 253.625 417.472656 222.390625 444.789062 193.464844 C 475.574219 160.929688 516.914062 141.117188 549.289062 110.457031 C 551.890625 108.289062 554.636719 106.410156 557.527344 104.675781 C 558.105469 104.386719 558.828125 104.53125 559.261719 104.964844 C 559.695312 105.542969 559.550781 106.410156 558.972656 106.84375 C 553.914062 111.039062 549.289062 115.808594 544.519531 120.292969 C 519.371094 145.164062 487.429688 161.652344 461.265625 185.222656 C 425.710938 219.640625 392.46875 258.398438 372.230469 303.804688 C 372.664062 304.527344 371.796875 305.6875 370.929688 305.542969 Z M 370.929688 305.542969 " fill-opacity="1" fill-rule="nonzero"/><path fill="#5fa834" d="M 519.082031 138.515625 C 518.214844 138.078125 517.78125 137.066406 517.78125 136.199219 C 517.492188 131.28125 520.960938 126.800781 522.550781 122.171875 C 524.863281 118.703125 528.1875 101.347656 532.957031 103.660156 C 533.824219 104.386719 533.824219 105.542969 533.101562 106.410156 C 528.1875 114.507812 529.488281 125.066406 525.296875 133.597656 C 537.148438 131.574219 549.722656 134.03125 560.5625 127.667969 C 561.285156 127.378906 562.007812 127.667969 562.296875 128.390625 C 562.585938 131.136719 556.804688 131.71875 554.925781 132.875 C 544.519531 137.5 532.8125 135.765625 521.972656 138.515625 C 521.105469 138.804688 519.949219 139.09375 519.082031 138.515625 Z M 519.082031 138.515625 " fill-opacity="1" fill-rule="nonzero"/><path fill="#5fa834" d="M 517.78125 165.410156 C 508.242188 164.109375 498.269531 162.953125 488.875 161.21875 C 487.574219 160.207031 488.152344 158.757812 488.152344 157.601562 C 489.453125 146.613281 493.210938 135.476562 495.957031 124.921875 C 502.605469 120.148438 494.367188 155.722656 493.355469 158.324219 C 505.496094 158.757812 517.347656 161.363281 529.488281 161.363281 C 530.355469 161.363281 531.078125 162.085938 531.222656 162.953125 C 531.367188 163.964844 530.644531 164.832031 529.632812 164.976562 C 525.875 165.699219 521.828125 165.84375 517.78125 165.410156 Z M 517.78125 165.410156 " fill-opacity="1" fill-rule="nonzero"/><path fill="#5fa834" d="M 489.019531 204.167969 C 479.910156 200.550781 471.09375 195.78125 461.265625 195.492188 C 456.929688 194.625 446.667969 199.25 448.691406 191.007812 C 456.0625 173.074219 458.664062 153.988281 464.011719 135.621094 C 464.445312 134.753906 465.457031 134.320312 466.324219 134.609375 C 467.191406 135.042969 467.769531 136.054688 467.335938 136.921875 C 461.265625 154.277344 462.566406 173.945312 454.90625 191.007812 C 472.105469 188.695312 485.984375 201.710938 502.460938 203.011719 C 505.640625 203.300781 508.820312 202.867188 511.710938 202 C 512.433594 201.855469 513.15625 202.144531 513.300781 202.867188 C 513.445312 203.589844 513.011719 204.3125 512.433594 204.457031 C 504.628906 206.769531 496.535156 207.347656 489.019531 204.167969 Z M 489.019531 204.167969 " fill-opacity="1" fill-rule="nonzero"/><path fill="#5fa834" d="M 408.511719 239.019531 C 416.027344 215.738281 425.277344 192.886719 431.203125 169.171875 C 431.78125 167.148438 434.816406 168.015625 434.238281 170.039062 C 427.734375 192.886719 423.6875 216.894531 411.980469 237.863281 C 434.382812 230.199219 458.230469 240.320312 480.636719 235.257812 C 484.25 233.957031 487.574219 232.511719 490.753906 230.632812 C 491.332031 230.34375 492.199219 230.488281 492.488281 231.066406 C 492.921875 231.644531 492.632812 232.511719 492.054688 232.800781 C 476.007812 245.816406 454.90625 239.164062 436.117188 239.019531 C 428.457031 238.585938 420.941406 239.019531 413.570312 240.753906 C 411.980469 240.898438 408.65625 241.476562 408.511719 239.019531 Z M 408.511719 239.019531 " fill-opacity="1" fill-rule="nonzero"/><path fill="#5fa834" d="M 405.476562 277.632812 C 398.105469 276.90625 390.589844 275.75 383.507812 277.050781 C 382.785156 276.90625 382.351562 276.328125 382.351562 275.605469 C 382.496094 275.027344 382.929688 274.449219 383.652344 274.449219 C 388.421875 273.4375 393.335938 273.003906 398.25 273.003906 C 415.59375 272.425781 433.804688 274.59375 450.859375 270.980469 C 457.074219 268.664062 462.566406 265.339844 468.492188 262.300781 C 469.214844 261.867188 470.082031 262.15625 470.515625 262.878906 C 470.949219 263.605469 470.660156 264.472656 469.9375 264.90625 C 467.335938 266.640625 464.589844 268.375 461.84375 269.964844 C 445.511719 281.390625 424.265625 277.921875 405.476562 277.632812 Z M 405.476562 277.632812 " fill-opacity="1" fill-rule="nonzero"/><path fill="#91e260" d="M 278.863281 187.105469 C 278.71875 186.667969 278.71875 186.089844 278.574219 185.65625 C 278.574219 186.089844 278.71875 186.523438 278.863281 187.105469 Z M 480.054688 135.910156 C 483.382812 137.644531 480.78125 141.984375 480.199219 144.585938 C 477.597656 152.542969 473.984375 160.0625 469.503906 167.003906 C 474.5625 171.050781 458.808594 182.765625 454.039062 187.105469 C 453.75 187.394531 453.605469 187.683594 453.460938 187.972656 C 460.253906 190.574219 447.535156 201.132812 442.042969 205.46875 C 440.742188 207.058594 439.441406 208.796875 437.996094 210.242188 C 431.636719 219.351562 423.976562 227.59375 413.714844 232.367188 C 414.4375 233.234375 414.582031 234.390625 414.148438 235.402344 C 409.089844 243.9375 402.585938 251.601562 395.359375 258.253906 C 397.816406 258.6875 399.40625 262.445312 396.804688 264.328125 C 390.445312 269.386719 384.664062 275.027344 379.027344 280.957031 C 374.832031 291.949219 369.628906 302.359375 368.183594 314.074219 C 368.039062 315.953125 367.460938 317.6875 366.160156 319.136719 C 362.980469 321.738281 358.5 321.304688 354.886719 322.75 C 351.851562 324.050781 347.660156 324.917969 346.070312 321.160156 C 345.636719 320.292969 345.636719 319.28125 345.78125 318.410156 C 339.855469 309.15625 334.507812 299.613281 329.160156 290.066406 C 323.523438 284.574219 317.742188 279.222656 312.683594 273.292969 C 311.382812 271.558594 308.636719 269.242188 310.082031 266.929688 C 298.375 256.808594 292.59375 242.488281 286.234375 228.898438 C 284.644531 225.28125 282.042969 222.246094 281.464844 218.339844 C 281.753906 216.027344 283.921875 216.027344 285.367188 217.183594 C 285.078125 216.316406 284.933594 215.304688 284.789062 214.433594 C 279.730469 202.578125 274.8125 190.574219 272.5 177.847656 C 272.210938 176.691406 272.355469 174.957031 273.511719 174.378906 C 270.042969 165.554688 268.597656 156.300781 267.007812 146.902344 C 266.71875 144.296875 264.839844 138.949219 268.886719 138.660156 C 269.175781 138.804688 269.609375 138.949219 269.753906 139.09375 C 269.03125 127.957031 269.03125 116.675781 269.753906 105.542969 C 271.921875 102.792969 274.667969 106.265625 275.96875 108.144531 C 280.886719 115.085938 286.378906 121.738281 291.148438 128.824219 C 291.292969 128.679688 291.4375 128.679688 291.582031 128.535156 C 292.449219 128.246094 293.460938 128.390625 294.039062 129.257812 C 300.542969 137.644531 305.3125 146.902344 310.226562 156.15625 C 310.515625 156.300781 310.804688 156.589844 311.09375 156.734375 C 309.503906 153.121094 309.648438 150.804688 313.117188 151.816406 C 317.597656 157.3125 321.210938 163.53125 324.679688 169.75 C 325.257812 170.328125 325.691406 170.761719 326.269531 171.195312 C 329.304688 174.8125 332.050781 178.714844 334.363281 182.765625 C 339.421875 184.5 344.046875 208.21875 345.347656 216.460938 C 345.925781 217.328125 346.359375 218.195312 346.792969 219.207031 C 347.371094 219.640625 347.660156 220.21875 347.949219 220.796875 C 349.683594 224.558594 350.839844 229.042969 351.707031 232.800781 C 351.996094 234.101562 352.285156 235.257812 352.429688 236.5625 C 354.308594 227.449219 358.933594 217.90625 361.535156 209.664062 C 362.113281 207.058594 365.148438 203.011719 367.460938 206.335938 C 371.652344 198.527344 376.714844 190.863281 381.195312 183.199219 C 382.351562 180.742188 385.964844 179.148438 387.410156 182.1875 C 391.890625 175.246094 397.960938 169.605469 403.308594 163.53125 C 405.042969 161.074219 409.523438 158.324219 411.113281 162.375 C 415.449219 157.601562 432.503906 140.105469 438.71875 146.179688 C 443.054688 145.457031 461.554688 133.453125 463.578125 140.105469 C 468.78125 138.367188 474.273438 136.777344 480.054688 135.910156 Z M 480.054688 135.910156 " fill-opacity="1" fill-rule="nonzero"/><path fill="#73c842" d="M 352.574219 309.589844 C 344.769531 289.054688 340.578125 264.183594 349.394531 243.9375 C 351.128906 243.214844 352.285156 245.09375 352.140625 246.683594 C 350.550781 263.75 354.308594 280.234375 355.898438 297.152344 C 356.476562 300.914062 357.199219 304.671875 357.777344 308.433594 C 357.921875 309.734375 357.34375 311.035156 356.042969 311.324219 C 354.597656 311.757812 353.152344 310.890625 352.574219 309.589844 Z M 352.574219 309.589844 " fill-opacity="1" fill-rule="nonzero"/><path fill="#73c842" d="M 344.480469 285.875 C 341.15625 267.941406 335.808594 249.867188 326.703125 233.8125 C 306.324219 206.914062 288.113281 182.042969 279.007812 149.214844 C 278.285156 146.613281 277.558594 144.152344 276.835938 141.550781 C 276.691406 140.828125 276.980469 140.105469 277.707031 139.960938 C 278.285156 139.816406 279.152344 140.105469 279.296875 140.828125 C 280.019531 143.574219 280.742188 146.324219 281.609375 149.070312 C 291.292969 181.03125 313.40625 206.769531 333.207031 232.800781 C 342.3125 248.851562 345.78125 267.21875 348.527344 285.296875 C 349.683594 288.042969 344.769531 289.054688 344.480469 285.875 Z M 344.480469 285.875 " fill-opacity="1" fill-rule="nonzero"/><path fill="#73c842" d="M 342.890625 273.582031 C 337.542969 263.460938 326.992188 259.554688 318.464844 252.757812 C 317.597656 252.035156 317.308594 250.878906 317.886719 250.011719 C 318.464844 249.140625 319.765625 248.851562 320.632812 249.578125 C 327.28125 254.78125 335.375 258.253906 341.15625 264.472656 C 342.890625 266.496094 344.480469 268.519531 346.070312 270.691406 C 347.226562 271.558594 347.226562 273.292969 346.214844 274.160156 C 345.203125 275.171875 343.613281 274.882812 342.890625 273.582031 Z M 342.890625 273.582031 " fill-opacity="1" fill-rule="nonzero"/><path fill="#73c842" d="M 340.144531 257.097656 C 334.652344 247.261719 337.976562 235.257812 336.820312 224.558594 C 336.675781 222.96875 335.375 220.507812 337.542969 219.785156 C 338.410156 219.496094 339.566406 220.074219 339.855469 220.941406 C 343.902344 231.933594 338.265625 244.226562 342.023438 255.070312 C 343.179688 256.371094 341.589844 258.542969 340.144531 257.097656 Z M 340.144531 257.097656 " fill-opacity="1" fill-rule="nonzero"/><path fill="#73c842" d="M 325.980469 231.066406 C 322.222656 227.59375 317.742188 225.136719 312.972656 223.402344 C 307.769531 221.8125 302.277344 220.652344 298.664062 216.171875 C 296.351562 213.421875 294.761719 210.242188 293.027344 207.203125 C 292.738281 206.625 293.027344 205.757812 293.605469 205.46875 C 295.339844 204.746094 295.917969 207.492188 296.640625 208.507812 C 298.375 211.398438 299.964844 214.578125 302.855469 216.605469 C 306.757812 218.917969 311.382812 219.207031 315.574219 220.652344 C 320.199219 222.246094 324.390625 225.136719 328.003906 228.460938 C 328.726562 229.042969 328.726562 230.199219 328.148438 230.921875 C 327.570312 231.355469 326.558594 231.5 325.980469 231.066406 Z M 325.980469 231.066406 " fill-opacity="1" fill-rule="nonzero"/><path fill="#73c842" d="M 321.355469 224.414062 C 318.753906 214.144531 320.632812 203.300781 318.753906 193.03125 C 318.03125 191.007812 317.019531 189.273438 316.152344 187.394531 C 315.863281 186.8125 316.152344 185.945312 316.730469 185.65625 C 317.453125 185.367188 318.175781 185.65625 318.464844 186.234375 C 324.246094 195.058594 322.945312 205.757812 322.945312 215.59375 C 322.945312 218.484375 323.378906 221.230469 323.8125 223.980469 C 324.246094 225.714844 321.644531 226.148438 321.355469 224.414062 Z M 321.355469 224.414062 " fill-opacity="1" fill-rule="nonzero"/><path fill="#73c842" d="M 295.773438 193.609375 C 290.425781 190.574219 285.800781 186.234375 283.199219 180.597656 C 282.765625 179.726562 283.054688 178.714844 283.921875 178.136719 C 284.789062 177.558594 286.089844 177.847656 286.523438 178.714844 C 289.269531 183.488281 292.449219 187.539062 297.074219 190.429688 C 300.398438 190.863281 298.375 195.636719 295.773438 193.609375 Z M 295.773438 193.609375 " fill-opacity="1" fill-rule="nonzero"/><path fill="#73c842" d="M 304.734375 201.132812 C 301.410156 199.394531 298.808594 196.070312 295.628906 194.046875 C 294.761719 193.320312 293.316406 193.464844 292.882812 192.308594 C 292.449219 187.683594 300.109375 193.898438 301.988281 194.480469 C 300.398438 184.933594 304.445312 175.101562 301.699219 165.699219 C 301.410156 164.976562 301.84375 164.253906 302.566406 164.109375 C 303.289062 163.820312 304.011719 164.253906 304.15625 164.976562 C 307.769531 174.8125 303.433594 185.367188 305.457031 195.347656 C 305.601562 196.214844 306.035156 196.648438 306.613281 197.226562 C 308.058594 198.816406 306.902344 201.566406 304.734375 201.132812 Z M 304.734375 201.132812 " fill-opacity="1" fill-rule="nonzero"/><path fill="#73c842" d="M 289.414062 173.65625 C 289.125 173.511719 288.980469 173.367188 288.835938 173.367188 C 283.199219 172.207031 280.742188 165.410156 277.269531 161.363281 C 276.402344 159.484375 273.800781 157.3125 274.378906 155.289062 C 274.8125 154.710938 275.679688 154.566406 276.257812 155 C 279.730469 160.496094 283.632812 165.988281 288.835938 170.039062 C 289.269531 164.398438 290.570312 158.902344 291.003906 153.265625 C 291.148438 151.09375 294.617188 151.382812 294.328125 153.554688 C 293.605469 160.0625 292.160156 165.988281 291.726562 172.351562 C 291.4375 173.222656 290.425781 174.089844 289.414062 173.65625 Z M 289.414062 173.65625 " fill-opacity="1" fill-rule="nonzero"/><path fill="#73c842" d="M 353.585938 308.144531 C 357.921875 281.96875 366.449219 254.636719 378.445312 230.921875 C 384.519531 217.472656 396.371094 208.363281 407.210938 198.960938 C 424.121094 181.753906 443.054688 167.003906 460.6875 150.804688 C 463.144531 149.214844 465.167969 143.71875 468.492188 145.746094 C 470.949219 149.070312 465.023438 152.105469 463.289062 154.710938 C 438.140625 178.28125 410.246094 199.25 387.988281 225.714844 C 372.085938 250.011719 363.414062 278.355469 357.199219 306.554688 C 358.355469 308.867188 354.597656 310.457031 353.585938 308.144531 Z M 353.585938 308.144531 " fill-opacity="1" fill-rule="nonzero"/><path fill="#73c842" d="M 361.101562 276.328125 C 360.378906 260.855469 358.644531 245.09375 358.210938 229.476562 C 358.066406 226.582031 362.691406 226.726562 362.402344 229.621094 C 361.535156 243.359375 367.027344 256.371094 366.304688 269.964844 C 370.351562 266.785156 374.976562 264.617188 379.605469 262.445312 C 380.472656 262.011719 381.628906 262.300781 382.207031 263.167969 C 382.785156 264.039062 382.496094 265.339844 381.628906 266.0625 C 375.988281 270.109375 369.195312 272.28125 363.992188 277.050781 C 363.125 277.921875 361.535156 277.488281 361.101562 276.328125 Z M 361.101562 276.328125 " fill-opacity="1" fill-rule="nonzero"/><path fill="#73c842" d="M 373.53125 245.960938 C 371.941406 245.09375 372.085938 243.070312 372.808594 241.765625 C 374.832031 229.910156 373.242188 217.328125 377.867188 206.046875 C 378.589844 204.457031 379.460938 202.578125 381.339844 202 C 383.507812 201.421875 384.230469 204.746094 382.0625 205.035156 C 377.144531 215.738281 380.761719 228.027344 378.734375 239.308594 C 387.121094 234.535156 397.816406 234.535156 405.042969 227.738281 C 405.910156 226.726562 407.355469 226.003906 408.511719 227.015625 C 411.402344 234.679688 388.855469 240.609375 383.363281 242.78125 C 380.039062 243.792969 377 246.683594 373.53125 245.960938 Z M 373.53125 245.960938 " fill-opacity="1" fill-rule="nonzero"/><path fill="#73c842" d="M 397.238281 213.710938 C 396.371094 213.566406 395.648438 212.554688 395.503906 211.6875 C 395.9375 203.878906 397.527344 196.070312 398.539062 188.40625 C 399.261719 186.089844 399.117188 177.992188 403.019531 180.308594 C 403.742188 180.886719 403.742188 182.1875 403.164062 182.765625 C 401.140625 191.585938 400.5625 200.550781 399.550781 209.664062 C 408.945312 206.480469 418.339844 203.300781 427.589844 199.683594 C 428.457031 199.25 429.613281 199.539062 430.046875 200.550781 C 430.480469 201.566406 430.046875 202.578125 429.179688 203.011719 C 424.554688 205.613281 419.496094 206.769531 414.582031 208.652344 C 408.800781 210.242188 403.164062 213.710938 397.238281 213.710938 Z M 397.238281 213.710938 " fill-opacity="1" fill-rule="nonzero"/><path fill="#73c842" d="M 427.734375 186.8125 C 425.132812 186.667969 424.410156 184.066406 425.132812 181.898438 C 426.144531 175.96875 427.445312 170.183594 428.167969 164.109375 C 428.023438 162.808594 429.613281 161.796875 430.769531 162.230469 C 431.492188 162.519531 431.925781 163.097656 432.070312 163.820312 C 431.203125 170.039062 430.046875 176.257812 429.035156 182.476562 C 435.828125 180.886719 442.476562 178.570312 448.113281 174.523438 C 448.835938 174.089844 449.847656 174.234375 450.425781 174.8125 C 452.160156 177.703125 447.246094 179.003906 445.800781 180.742188 C 440.742188 184.644531 434.09375 186.523438 427.734375 186.8125 Z M 427.734375 186.8125 " fill-opacity="1" fill-rule="nonzero"/><path fill="#a1da6a" d="M 368.617188 317.253906 C 368.472656 317.253906 368.472656 317.253906 368.617188 317.253906 C 368.761719 317.253906 368.90625 317.253906 368.90625 317.398438 C 368.761719 317.253906 368.617188 317.253906 368.617188 317.253906 Z M 368.617188 317.253906 " fill-opacity="1" fill-rule="nonzero"/><path fill="#a1da6a" d="M 354.019531 300.625 C 354.164062 300.769531 354.308594 300.769531 354.453125 300.914062 C 354.164062 300.769531 354.164062 300.625 354.019531 300.625 Z M 354.019531 300.625 " fill-opacity="1" fill-rule="nonzero"/><path fill="#73c741" d="M 378.589844 324.917969 C 384.953125 328.535156 394.78125 360.636719 382.351562 358.902344 C 380.472656 358.324219 379.3125 356.734375 378.300781 355 C 378.300781 355.289062 378.300781 355.722656 378.300781 356.011719 C 378.300781 356.15625 378.300781 356.300781 378.300781 356.445312 C 379.460938 363.242188 368.761719 400.117188 359.65625 395.199219 C 358.5 394.476562 357.488281 393.175781 357.632812 391.730469 C 351.128906 406.480469 339.710938 426.003906 333.785156 409.953125 C 324.824219 423.257812 315.140625 437.285156 300.6875 445.238281 C 295.917969 448.273438 286.8125 451.746094 285.945312 443.355469 C 285.511719 443.644531 285.222656 443.933594 284.644531 444.226562 C 271.921875 455.214844 258.769531 473.4375 241.425781 474.738281 C 238.246094 473.4375 238.101562 469.386719 239.546875 466.496094 C 234.488281 469.53125 226.25 474.738281 219.457031 477.339844 C 211.796875 481.390625 203.992188 484.859375 195.898438 487.753906 C 189.394531 488.621094 188.527344 481.246094 192.429688 477.484375 C 178.84375 481.535156 165.976562 491.800781 151.667969 491.078125 C 149.210938 490.066406 149.066406 487.609375 149.933594 485.726562 C 149.210938 484.425781 150.800781 481.824219 151.378906 480.523438 C 140.972656 485.726562 130.132812 489.921875 119.4375 494.261719 C 118.425781 494.695312 117.269531 495.128906 116.257812 495.128906 C 115.535156 495.128906 114.957031 494.984375 114.234375 494.550781 C 109.175781 490.5 116.113281 484.859375 118.714844 481.390625 C 113.511719 483.558594 61.476562 505.25 71.160156 487.753906 C 75.789062 482.113281 81.570312 477.484375 86.917969 472.570312 C 82.4375 473.4375 78.679688 473.726562 77.8125 473.292969 C 67.835938 468.375 83.59375 459.699219 87.640625 456.082031 C 90.097656 454.058594 99.347656 447.261719 107.730469 442.632812 C 91.398438 435.546875 125.507812 423.546875 132.878906 417.761719 C 107.585938 419.351562 141.550781 395.78125 148.054688 391.730469 C 129.988281 395.492188 154.992188 374.375 168.144531 365.121094 C 168.144531 365.121094 168 365.121094 168 365.121094 C 162.652344 358.902344 182.746094 347.769531 197.632812 340.972656 C 195.753906 333.597656 221.480469 321.882812 226.539062 320.003906 C 226.394531 318.554688 227.117188 317.398438 228.128906 316.53125 C 235.355469 311.757812 243.882812 309.15625 251.832031 305.976562 C 252.988281 305.542969 254.289062 305.105469 255.445312 304.816406 C 255.300781 304.816406 255.300781 304.671875 255.15625 304.671875 C 250.53125 296.285156 272.644531 290.789062 288.691406 288.621094 C 288.546875 288.332031 288.546875 287.898438 288.546875 287.609375 C 288.691406 281.96875 295.050781 281.679688 299.386719 281.535156 C 305.890625 279.800781 312.972656 279.078125 319.476562 279.800781 C 321.355469 281.535156 323.378906 282.980469 325.257812 284.71875 C 326.558594 285.875 327.714844 287.03125 328.871094 288.332031 C 330.75 290.5 332.484375 292.671875 334.074219 294.984375 C 336.675781 298.890625 339.132812 303.082031 341.445312 307.277344 C 341.589844 307.421875 341.589844 307.566406 341.589844 307.710938 C 341.445312 309.011719 341.445312 310.167969 341.589844 311.324219 C 342.746094 312.773438 344.191406 313.929688 346.070312 314.652344 C 348.09375 315.519531 350.40625 315.808594 352.574219 315.664062 C 354.164062 315.519531 355.753906 315.230469 357.34375 315.085938 C 357.488281 315.085938 357.777344 315.085938 357.921875 315.085938 C 358.644531 315.085938 359.511719 315.230469 360.234375 315.375 C 361.824219 315.664062 363.558594 315.953125 365.148438 316.386719 C 366.015625 316.675781 367.027344 316.964844 367.894531 317.253906 C 368.617188 317.542969 369.339844 317.976562 369.917969 318.410156 C 370.929688 318.988281 371.796875 319.570312 372.664062 320.148438 C 372.953125 320.292969 373.097656 320.4375 373.386719 320.726562 C 375.699219 321.738281 377.144531 323.183594 378.589844 324.917969 Z M 378.589844 324.917969 " fill-opacity="1" fill-rule="nonzero"/><path fill="#73c741" d="M 429.324219 560.492188 C 429.324219 560.347656 429.324219 560.347656 429.179688 560.203125 C 429.035156 560.203125 428.890625 560.058594 428.601562 560.058594 C 429.035156 560.203125 429.179688 560.347656 429.324219 560.492188 Z M 629.507812 388.550781 C 629.652344 388.550781 629.652344 388.550781 629.796875 388.550781 C 629.507812 388.402344 629.074219 388.113281 628.785156 387.96875 C 629.074219 388.113281 629.21875 388.257812 629.507812 388.550781 Z M 761.757812 614.433594 C 763.058594 615.734375 762.914062 617.761719 761.902344 619.207031 C 758.722656 626.726562 748.171875 618.628906 742.824219 617.324219 C 743.980469 621.085938 740.078125 624.265625 736.464844 623.109375 C 728.371094 620.941406 720.421875 618.195312 712.90625 614.433594 C 713.195312 620.652344 706.402344 618.917969 702.789062 617.035156 C 697.007812 614.578125 691.371094 612.121094 685.734375 609.371094 C 687.179688 613.855469 686.3125 617.46875 679.515625 617.613281 C 671.566406 615.734375 664.628906 610.671875 657.402344 606.625 C 656.824219 606.625 656.390625 606.480469 655.8125 606.480469 C 657.402344 609.371094 657.691406 613.277344 654.078125 614.722656 C 645.839844 616.023438 638.613281 608.792969 631.675781 605.035156 C 631.675781 605.035156 631.53125 605.035156 631.53125 605.035156 C 633.699219 609.226562 629.363281 614.144531 624.882812 612.121094 C 621.269531 610.527344 617.65625 608.792969 614.1875 607.058594 C 613.464844 606.480469 609.851562 604.890625 606.382812 603.296875 C 605.371094 603.152344 604.359375 603.152344 603.203125 603.007812 C 603.347656 607.347656 602.046875 610.671875 598 610.09375 C 595.542969 609.515625 583.546875 604.746094 574.582031 599.683594 C 573.570312 599.539062 572.558594 599.394531 571.402344 599.25 C 571.691406 601.128906 571.691406 603.007812 570.96875 604.890625 C 569.523438 607.636719 566.054688 608.070312 563.453125 606.480469 C 555.070312 602.140625 546.832031 597.949219 537.871094 595.199219 C 538.160156 599.105469 536.28125 601.5625 530.066406 599.683594 C 520.671875 595.632812 512 589.847656 503.039062 584.5 C 502.605469 587.824219 501.160156 590.285156 497.980469 589.847656 C 492.632812 586.089844 487.574219 582.039062 482.226562 578.136719 C 479.476562 577.414062 476.730469 576.546875 473.984375 575.675781 C 473.839844 579.292969 472.683594 582.039062 469.503906 582.328125 C 468.058594 582.472656 466.757812 581.460938 466.179688 580.304688 C 462.421875 577.992188 458.519531 575.242188 455.195312 573.074219 C 454.183594 572.207031 449.125 569.171875 444.210938 565.699219 C 442.042969 564.832031 439.730469 564.109375 437.5625 563.242188 C 439.007812 567.722656 439.441406 571.773438 434.238281 572.351562 C 426.289062 568.300781 420.363281 560.492188 413.136719 554.996094 C 412.125 554.707031 411.113281 554.417969 410.101562 554.128906 C 410.390625 561.070312 408.945312 566.566406 401.71875 561.503906 C 393.191406 554.996094 386.109375 547.042969 376.855469 541.40625 C 376.421875 543.140625 375.84375 544.441406 375.265625 545.308594 C 374.976562 546.753906 373.53125 547.910156 371.941406 547.476562 C 371.796875 547.332031 371.507812 547.332031 371.363281 547.1875 C 369.917969 546.898438 368.328125 545.597656 366.738281 543.574219 C 363.414062 540.246094 360.667969 536.199219 358.210938 532.292969 C 357.632812 531.859375 357.199219 531.136719 356.910156 530.414062 C 355.320312 527.523438 353.730469 524.484375 352.71875 521.304688 C 351.417969 522.027344 349.828125 522.605469 348.527344 523.183594 C 347.226562 523.761719 345.492188 523.472656 344.769531 522.171875 C 343.902344 517.832031 345.058594 512.914062 346.792969 508 C 347.082031 506.699219 347.371094 505.394531 347.660156 504.09375 C 346.070312 504.960938 344.625 505.105469 343.324219 503.949219 C 338.988281 496.574219 349.105469 481.824219 354.019531 475.171875 C 353.875 475.171875 353.585938 475.027344 353.441406 474.882812 C 353.152344 474.882812 352.863281 474.882812 352.429688 474.882812 C 343.902344 474.59375 350.839844 464.902344 359.078125 456.515625 C 361.101562 453.769531 363.558594 451.3125 366.449219 449.429688 C 367.605469 448.417969 368.617188 447.550781 369.484375 446.683594 C 368.328125 445.671875 367.605469 444.371094 367.75 442.632812 C 368.183594 440.609375 369.917969 439.164062 371.652344 438.007812 C 380.472656 433.089844 390.878906 431.355469 400.851562 431.789062 C 403.308594 431.933594 405.765625 432.367188 408.078125 432.800781 C 408.222656 431.933594 408.65625 431.066406 409.523438 430.34375 C 417.183594 429.183594 424.554688 434.824219 432.214844 435.113281 C 435.683594 435.546875 439.007812 435.402344 442.332031 435.257812 C 448.546875 424.414062 444.5 410.386719 447.535156 398.382812 C 448.835938 393.898438 448.691406 387.535156 452.882812 384.5 C 455.484375 383.632812 456.640625 385.511719 457.21875 387.679688 C 458.085938 386.089844 459.097656 384.644531 460.109375 383.199219 C 465.023438 371.484375 475.285156 351.238281 480.925781 359.769531 C 481.070312 360.492188 481.214844 361.21875 481.214844 361.941406 C 482.082031 361.363281 483.09375 360.636719 484.105469 360.058594 C 489.019531 352.394531 495.667969 345.886719 504.773438 344.007812 C 510.554688 342.996094 511.566406 347.046875 511.277344 351.671875 C 519.226562 347.625 528.042969 345.308594 536.570312 342.851562 C 539.316406 342.128906 542.496094 341.117188 545.097656 342.707031 C 549.289062 344.585938 548.710938 349.503906 544.808594 351.382812 C 550.445312 351.238281 592.074219 349.503906 584.703125 360.347656 C 584.703125 360.347656 584.847656 360.347656 584.847656 360.492188 C 592.074219 360.347656 599.15625 361.507812 606.238281 362.664062 C 609.273438 363.386719 613.175781 364.109375 614.765625 367 C 616.5 370.90625 612.453125 372.785156 609.128906 373.363281 C 609.5625 373.652344 609.851562 373.941406 610.285156 374.085938 C 624.160156 377.269531 650.898438 386.957031 635.722656 393.753906 C 635.867188 393.898438 636.011719 394.042969 636.15625 394.1875 C 646.851562 398.382812 656.101562 405.902344 665.0625 412.84375 C 668.675781 414.867188 666.363281 420.074219 662.460938 418.773438 C 672.433594 427.738281 682.550781 435.980469 692.816406 444.371094 C 697.152344 447.117188 695.128906 453.480469 689.925781 452.46875 C 689.78125 452.46875 689.636719 452.324219 689.492188 452.324219 C 698.453125 461.867188 711.605469 477.339844 698.742188 477.195312 C 697.730469 478.0625 696.429688 478.496094 695.128906 478.351562 C 695.851562 479.367188 696.574219 480.234375 697.152344 480.8125 C 700.1875 485.582031 720.132812 510.023438 706.113281 508.722656 C 711.460938 516.386719 716.808594 524.195312 722.878906 531.28125 C 727.9375 535.621094 726.78125 542.996094 719.121094 539.667969 C 718.976562 539.667969 718.976562 539.523438 718.832031 539.523438 C 724.757812 546.464844 730.683594 553.40625 737.1875 559.480469 C 738.777344 560.78125 740.65625 561.9375 741.523438 563.820312 C 742.679688 566.566406 740.222656 569.605469 737.332031 569.167969 C 735.453125 568.878906 733.71875 568.15625 731.984375 567.867188 C 738.488281 574.808594 745.859375 581.027344 751.785156 588.546875 C 753.085938 590.140625 754.242188 592.019531 753.808594 594.1875 C 752.652344 597.078125 750.195312 597.804688 747.449219 597.660156 C 751.496094 604.023438 756.121094 609.660156 761.757812 614.433594 Z M 761.757812 614.433594 " fill-opacity="1" fill-rule="nonzero"/><path fill="#5fa834" d="M 725.335938 601.5625 C 694.261719 581.605469 666.074219 557.457031 635.433594 536.921875 C 578.484375 499.609375 518.792969 464.757812 454.90625 440.753906 C 452.882812 440.464844 451.4375 438.152344 453.027344 436.558594 C 454.472656 435.257812 456.496094 436.125 458.230469 436.414062 C 486.851562 442.199219 512.289062 456.515625 537.726562 470.109375 C 573.136719 487.753906 606.671875 509.300781 639.046875 531.859375 C 669.253906 552.683594 699.175781 574.953125 727.359375 598.527344 C 728.949219 599.828125 727.214844 602.71875 725.335938 601.5625 Z M 725.335938 601.5625 " fill-opacity="1" fill-rule="nonzero"/><path fill="#5fa834" d="M 680.671875 592.742188 C 668.386719 579.148438 662.027344 561.214844 649.886719 547.621094 C 648.730469 546.898438 648.441406 545.164062 649.597656 544.152344 C 650.464844 543.285156 652.199219 543.285156 652.921875 544.441406 C 664.339844 555.578125 672 569.460938 679.660156 583.054688 C 680.960938 586.234375 687.324219 589.851562 684.144531 593.320312 C 683.128906 594.042969 681.539062 593.753906 680.671875 592.742188 Z M 680.671875 592.742188 " fill-opacity="1" fill-rule="nonzero"/><path fill="#5fa834" d="M 706.257812 560.058594 C 699.03125 557.457031 691.804688 554.5625 684.144531 552.828125 C 674.890625 551.09375 665.207031 551.527344 656.246094 547.910156 C 654.800781 547.1875 652.632812 546.898438 652.34375 545.019531 C 652.34375 543.285156 654.800781 542.707031 655.089844 544.585938 C 655.523438 544.730469 655.957031 544.875 656.246094 545.019531 C 666.652344 547.332031 677.492188 544.730469 687.757812 547.332031 C 692.09375 548.78125 711.894531 553.117188 709.871094 558.613281 C 709.292969 559.914062 707.703125 560.636719 706.257812 560.058594 Z M 706.257812 560.058594 " fill-opacity="1" fill-rule="nonzero"/><path fill="#5fa834" d="M 622.714844 580.160156 C 607.394531 563.53125 598.289062 541.839844 594.242188 519.855469 C 593.085938 514.652344 590.773438 509.734375 587.449219 505.539062 C 587.160156 504.960938 587.160156 504.238281 587.738281 503.804688 C 590.050781 502.359375 592.363281 506.550781 593.953125 508 C 597.855469 512.914062 599.445312 518.988281 600.746094 525.0625 C 602.769531 535.1875 607.25 544.441406 612.453125 553.261719 C 616.933594 561.214844 621.558594 569.171875 627.339844 576.257812 C 629.652344 579.003906 625.316406 582.761719 622.714844 580.160156 Z M 622.714844 580.160156 " fill-opacity="1" fill-rule="nonzero"/><path fill="#5fa834" d="M 674.890625 505.683594 C 662.605469 504.09375 650.464844 500.769531 638.035156 500.914062 C 628.0625 501.492188 617.945312 502.214844 607.828125 501.925781 C 599.300781 501.636719 590.917969 500.480469 582.386719 499.464844 C 581.230469 499.320312 580.507812 498.019531 581.375 497.152344 C 598.144531 498.164062 615.199219 496.429688 631.964844 495.417969 C 646.707031 495.273438 661.015625 500.191406 675.46875 501.925781 C 677.925781 502.359375 677.203125 505.972656 674.890625 505.683594 Z M 674.890625 505.683594 " fill-opacity="1" fill-rule="nonzero"/><path fill="#5fa834" d="M 562.585938 563.675781 C 555.648438 553.695312 549.289062 543.140625 546.109375 531.425781 C 541.628906 511.035156 539.605469 487.753906 524.140625 472.28125 C 522.695312 472.28125 522.261719 469.964844 523.707031 469.386719 C 524.574219 468.953125 525.441406 469.820312 526.019531 470.253906 C 543.074219 483.847656 548.855469 506.554688 552.035156 527.230469 C 554.203125 539.523438 559.984375 550.660156 566.199219 561.214844 C 567.644531 563.53125 564.175781 565.84375 562.585938 563.675781 Z M 562.585938 563.675781 " fill-opacity="1" fill-rule="nonzero"/><path fill="#5fa834" d="M 523.273438 467.652344 C 521.683594 467.507812 518.214844 466.351562 519.515625 464.179688 C 520.09375 463.457031 521.394531 463.3125 521.972656 464.179688 C 533.101562 465.050781 543.507812 459.410156 554.058594 456.660156 C 570.101562 451.3125 586.4375 447.550781 603.347656 446.25 C 618.378906 444.078125 633.988281 441.621094 648.875 446.539062 C 650.320312 446.972656 651.332031 448.417969 651.1875 449.863281 C 650.898438 451.457031 649.308594 452.757812 647.71875 452.46875 C 632.253906 449.574219 617.367188 451.746094 602.046875 453.769531 C 575.160156 454.203125 550.15625 467.941406 523.273438 467.652344 Z M 523.273438 467.652344 " fill-opacity="1" fill-rule="nonzero"/><path fill="#5fa834" d="M 506.507812 556.589844 C 487.574219 539.957031 473.40625 517.398438 470.660156 491.945312 C 468.492188 477.917969 472.25 463.3125 468.925781 449.574219 C 468.492188 448.128906 467.480469 446.539062 468.492188 445.09375 C 469.503906 443.644531 472.105469 444.660156 471.671875 446.539062 C 477.886719 457.816406 476.007812 471.699219 477.019531 483.992188 C 477.742188 501.347656 482.949219 518.410156 491.910156 533.160156 C 496.96875 540.679688 503.472656 547.042969 509.6875 553.550781 C 511.421875 555.578125 508.53125 558.613281 506.507812 556.589844 Z M 506.507812 556.589844 " fill-opacity="1" fill-rule="nonzero"/><path fill="#5fa834" d="M 471.671875 446.105469 C 470.660156 444.949219 471.816406 443.789062 473.117188 443.789062 C 491.765625 436.847656 506.652344 423.402344 522.550781 411.832031 C 531.800781 405.324219 543.21875 403.011719 554.347656 401.996094 C 572.414062 398.671875 590.628906 399.828125 608.40625 404.023438 C 612.019531 404.601562 611.296875 410.242188 607.683594 409.808594 C 595.6875 407.78125 583.546875 405.035156 571.402344 406.914062 C 557.960938 409.226562 543.796875 409.664062 531.222656 415.589844 C 512 426.148438 493.210938 442.34375 471.671875 446.105469 Z M 471.671875 446.105469 " fill-opacity="1" fill-rule="nonzero"/><path fill="#5fa834" d="M 457.074219 439.886719 C 454.90625 439.164062 454.761719 435.691406 456.929688 434.824219 C 470.226562 418.339844 472.539062 392.453125 493.355469 382.1875 C 497.980469 379.726562 502.894531 378.136719 507.664062 376.402344 C 508.386719 376.113281 509.398438 376.546875 509.6875 377.269531 C 510.121094 378.136719 509.6875 379.148438 508.820312 379.4375 C 505.351562 381.171875 502.316406 382.621094 499.136719 384.5 C 478.464844 395.636719 476.730469 422.53125 460.6875 437.863281 C 460.398438 439.597656 458.519531 440.464844 457.074219 439.886719 Z M 457.074219 439.886719 " fill-opacity="1" fill-rule="nonzero"/><path fill="#5fa834" d="M 418.050781 532.871094 C 405.910156 513.640625 413.570312 488.765625 426 471.699219 C 433.660156 460.566406 446.089844 453.335938 452.449219 441.332031 C 453.605469 439.742188 454.617188 434.824219 457.363281 437.140625 C 457.941406 438.007812 457.652344 439.164062 456.785156 439.597656 C 452.59375 452.035156 442.042969 460.277344 434.09375 470.253906 C 421.230469 486.886719 411.835938 510.601562 422.53125 530.558594 C 423.6875 533.304688 419.496094 535.621094 418.050781 532.871094 Z M 418.050781 532.871094 " fill-opacity="1" fill-rule="nonzero"/><path fill="#5fa834" d="M 374.976562 498.019531 C 373.964844 497.875 373.242188 497.007812 373.386719 495.996094 C 372.953125 480.378906 380.328125 465.484375 392.613281 455.9375 C 409.523438 441.765625 435.105469 450.007812 452.015625 435.980469 C 453.894531 432.65625 458.375 435.402344 455.773438 438.296875 C 437.996094 453.914062 409.8125 445.527344 392.902344 462.300781 C 385.675781 469.53125 379.3125 478.0625 378.011719 488.332031 C 377 491.078125 378.445312 497.730469 374.976562 498.019531 Z M 374.976562 498.019531 " fill-opacity="1" fill-rule="nonzero"/><path fill="#5fa834" d="M 112.066406 468.953125 C 111.632812 468.230469 111.777344 467.21875 112.5 466.785156 C 121.894531 460.421875 131.144531 453.769531 140.972656 448.128906 C 165.832031 434.390625 191.417969 421.085938 213.53125 403.300781 C 253.132812 371.773438 286.8125 329.546875 337.976562 317.109375 C 340.433594 316.242188 341.734375 320.292969 338.988281 320.871094 C 335.375 321.882812 331.472656 323.617188 328.148438 324.917969 C 310.949219 332.4375 294.617188 342.128906 279.585938 353.40625 C 258.769531 370.761719 241.28125 391.730469 219.457031 407.78125 C 194.597656 427.015625 166.699219 440.753906 139.09375 455.503906 C 130.710938 460.132812 122.617188 465.195312 114.089844 469.53125 C 113.367188 469.820312 112.5 469.53125 112.066406 468.953125 Z M 112.066406 468.953125 " fill-opacity="1" fill-rule="nonzero"/><path fill="#5fa834" d="M 158.605469 464.757812 C 157.738281 464.179688 157.449219 463.023438 158.027344 462.15625 C 164.675781 452.613281 170.023438 442.199219 175.949219 432.222656 C 165.6875 433.234375 155.136719 432.222656 144.875 433.8125 C 144.007812 435.402344 141.40625 433.8125 142.417969 432.222656 C 143.429688 430.921875 145.453125 431.066406 146.898438 430.777344 C 156.871094 429.90625 167.566406 425.714844 177.542969 428.75 C 178.265625 428.894531 179.132812 428.605469 180 428.460938 C 183.613281 429.039062 181.445312 433.089844 180.289062 434.96875 C 174.648438 445.238281 169.011719 455.648438 161.207031 464.46875 C 160.484375 465.050781 159.328125 465.339844 158.605469 464.757812 Z M 158.605469 464.757812 " fill-opacity="1" fill-rule="nonzero"/><path fill="#5fa834" d="M 194.453125 459.988281 C 191.5625 457.527344 195.898438 454.347656 196.765625 451.890625 C 204.859375 437.140625 209.628906 421.230469 216.855469 406.191406 C 200.523438 407.925781 184.191406 400.261719 167.855469 403.589844 C 165.542969 403.445312 161.496094 406.480469 160.339844 403.445312 C 160.050781 400.984375 162.941406 401.128906 164.53125 400.550781 C 183.324219 395.199219 202.980469 402.285156 221.769531 401.128906 C 223.070312 401.851562 223.359375 403.300781 223.070312 404.601562 C 221.914062 408.503906 219.601562 412.410156 218.300781 416.167969 C 215.121094 423.980469 202.835938 461.289062 194.453125 459.988281 Z M 194.453125 459.988281 " fill-opacity="1" fill-rule="nonzero"/><path fill="#5fa834" d="M 236.800781 442.632812 C 235.644531 442.054688 235.066406 440.609375 235.644531 439.453125 C 239.980469 431.644531 242.292969 423.257812 244.894531 414.722656 C 247.496094 406.480469 248.21875 397.804688 250.242188 389.707031 C 251.976562 381.316406 255.878906 374.375 258.191406 366.566406 C 238.535156 368.882812 218.589844 365.988281 198.933594 365.699219 C 196.765625 365.121094 192.140625 366.855469 191.417969 364.253906 C 191.417969 363.386719 192.140625 362.664062 193.007812 362.664062 C 215.84375 363.097656 238.679688 362.519531 261.371094 361.507812 C 263.105469 361.941406 263.683594 363.820312 263.828125 365.410156 C 263.972656 370.472656 262.09375 375.246094 260.648438 380.015625 C 255.589844 397.660156 253.710938 416.023438 245.039062 432.367188 C 242.871094 435.402344 240.847656 443.789062 236.800781 442.632812 Z M 236.800781 442.632812 " fill-opacity="1" fill-rule="nonzero"/><path fill="#5fa834" d="M 286.234375 422.097656 C 285.511719 421.808594 285.222656 420.941406 285.511719 420.21875 C 289.269531 412.699219 293.171875 405.035156 294.90625 396.792969 C 301.554688 373.652344 303.867188 348.925781 316.152344 327.8125 C 296.496094 327.8125 277.125 328.390625 257.46875 326.65625 C 252.121094 326.800781 246.773438 327.234375 241.859375 329.257812 C 241.136719 329.546875 240.414062 329.113281 240.125 328.535156 C 239.835938 325.640625 246.484375 325.496094 248.507812 324.773438 C 270.765625 322.171875 293.316406 325.0625 315.71875 325.0625 C 326.992188 322.460938 314.707031 339.089844 314.273438 343.71875 C 310.226562 360.929688 308.492188 378.570312 300.976562 394.910156 C 297.507812 404.167969 293.027344 413.132812 287.96875 421.664062 C 287.535156 422.242188 286.8125 422.386719 286.234375 422.097656 Z M 286.234375 422.097656 " fill-opacity="1" fill-rule="nonzero"/><path fill="#5fa834" d="M 397.816406 373.941406 C 383.074219 369.027344 390.15625 347.046875 405.042969 351.238281 C 419.785156 356.300781 412.414062 378.28125 397.816406 373.941406 Z M 397.816406 373.941406 " fill-opacity="1" fill-rule="nonzero"/><path fill="#5fa834" d="M 330.316406 319.859375 C 326.125 318.988281 324.824219 314.21875 322.222656 311.613281 C 311.09375 300.335938 293.171875 301.203125 279.007812 304.960938 C 277.414062 305.398438 276.691406 302.9375 278.285156 302.503906 C 292.449219 298.457031 309.214844 297.296875 321.789062 306.410156 C 325.113281 309.011719 326.992188 312.773438 329.015625 316.242188 C 329.449219 316.820312 330.027344 317.542969 330.75 317.832031 C 332.484375 317.6875 331.90625 320.4375 330.316406 319.859375 Z M 330.316406 319.859375 " fill-opacity="1" fill-rule="nonzero"/><path fill="#5fa834" d="M 328.292969 393.175781 C 327.570312 392.742188 327.425781 391.730469 328.003906 391.007812 C 332.050781 385.078125 336.097656 379.582031 339.277344 373.21875 C 343.902344 362.519531 345.058594 349.9375 340 339.234375 C 337.6875 333.597656 332.339844 329.546875 331.328125 323.328125 C 331.183594 322.027344 330.75 320.003906 332.195312 319.136719 C 333.0625 318.699219 334.074219 319.570312 333.929688 320.4375 C 334.652344 325.640625 339.132812 328.824219 342.023438 332.871094 C 344.625 336.488281 346.359375 340.972656 347.226562 345.164062 C 351.128906 362.953125 341.445312 379.726562 330.460938 392.886719 C 330.027344 393.609375 329.015625 393.753906 328.292969 393.175781 Z M 328.292969 393.175781 " fill-opacity="1" fill-rule="nonzero"/><path fill="#5fa834" d="M 369.339844 357.167969 C 368.328125 347.046875 366.882812 335.621094 357.199219 330.125 C 351.128906 326.367188 344.335938 324.339844 337.6875 321.738281 C 336.964844 321.304688 335.953125 321.015625 335.519531 320.148438 C 334.941406 318.84375 336.964844 317.832031 337.542969 319.136719 C 355.464844 324.339844 372.230469 328.101562 372.085938 350.515625 C 371.796875 352.683594 373.820312 358.179688 370.929688 358.46875 C 370.0625 358.613281 369.484375 358.035156 369.339844 357.167969 Z M 369.339844 357.167969 " fill-opacity="1" fill-rule="nonzero"/></svg>