<svg xmlns="http://www.w3.org/2000/svg" xmlns:xlink="http://www.w3.org/1999/xlink" width="1080" zoomAndPan="magnify" viewBox="0 0 810 817.92" height="1080" preserveAspectRatio="xMidYMid meet" version="1.0"><path fill="#21040b" d="M 671.175781 502.769531 C 669.375 489.496094 667.027344 475.257812 658.316406 464.472656 C 652.925781 457.144531 644.078125 451.476562 634.675781 452.027344 C 619.605469 449.539062 607.164062 463.503906 603.292969 476.914062 C 597.484375 499.035156 597.210938 522.265625 591.402344 544.523438 C 585.871094 567.753906 577.023438 591.535156 558.636719 607.710938 C 559.882812 589.046875 556.703125 569.136719 546.609375 552.957031 C 539.972656 542.449219 530.019531 534.433594 524.074219 523.234375 C 510.25 499.726562 513.566406 471.386719 515.78125 445.53125 C 528.5 440 539.421875 431.152344 549.925781 422.300781 C 563.890625 408.753906 577.300781 394.511719 588.636719 378.75 C 600.25 380.960938 610.207031 388.152344 620.160156 394.234375 C 624.445312 396.308594 626.933594 390.777344 626.105469 387.183594 C 616.289062 379.304688 605.226562 373.21875 593.476562 369.070312 C 598.453125 359.117188 604.675781 349.160156 605.367188 337.960938 C 617.808594 336.441406 630.390625 335.613281 642.972656 335.472656 C 647.257812 335.335938 649.332031 328.007812 644.351562 327.179688 C 631.632812 324.550781 618.5 326.902344 605.644531 328.285156 C 610.34375 321.925781 614.90625 312.800781 609.097656 305.609375 C 603.292969 299.941406 594.582031 298.003906 586.703125 298.421875 C 584.351562 281.828125 577.714844 266.066406 567.207031 252.933594 C 568.175781 251.136719 570.527344 216.15625 569.28125 200.667969 C 565.828125 167.625 556.976562 135.410156 547.300781 103.75 C 542.875 91.859375 539.003906 79.277344 530.574219 69.460938 C 526.5625 65.171875 520.066406 64.898438 514.671875 66.554688 C 504.71875 69.875 495.734375 75.820312 486.746094 81.351562 C 453.289062 104.441406 427.023438 136.101562 404.074219 169.285156 C 400.339844 167.625 396.46875 166.65625 392.460938 166.65625 C 377.390625 164.308594 362.042969 164.582031 346.972656 165.691406 C 333.703125 166.242188 320.570312 169.421875 308.539062 175.089844 C 306.328125 175.78125 304.117188 177.578125 301.90625 177.441406 C 290.429688 166.105469 279.230469 154.351562 266.789062 143.84375 C 250.890625 129.878906 234.574219 115.777344 215.496094 106.375 C 207.617188 102.503906 199.046875 98.355469 190.058594 99.1875 C 182.59375 100.570312 179 108.035156 175.679688 114.117188 C 169.597656 128.910156 168.769531 145.089844 167.664062 160.851562 C 163.101562 206.890625 169.875 253.484375 182.457031 297.867188 C 185.773438 310.035156 188.398438 322.617188 193.101562 334.367188 C 191.164062 342.386719 188.953125 350.269531 188.675781 358.5625 C 181.902344 358.5625 176.785156 364.371094 173.882812 369.902344 C 167.800781 380.824219 170.980469 394.511719 178.585938 403.773438 C 175.265625 403.636719 172.5 405.988281 169.597656 407.371094 C 159.230469 412.347656 149 418.15625 140.566406 426.171875 C 137.800781 428.109375 137.246094 433.777344 141.117188 434.605469 C 144.574219 434.882812 147.476562 432.394531 150.105469 430.460938 C 161.164062 422.855469 172.777344 415.804688 185.496094 411.378906 C 191.996094 417.601562 199.183594 422.992188 207.0625 427.554688 C 194.34375 441.519531 180.65625 456.867188 178.167969 476.5 C 177.617188 479.402344 180.933594 481.894531 183.421875 479.957031 C 187.292969 476.085938 188.675781 470.695312 191.441406 465.992188 C 197.25 453.964844 206.097656 443.59375 214.390625 433.363281 C 232.363281 448.570312 251.71875 463.089844 273.976562 471.660156 C 278.125 473.320312 282.273438 476.085938 286.972656 475.949219 C 283.378906 494.199219 278.125 512.171875 271.765625 529.730469 C 267.480469 540.652344 259.738281 549.363281 252.824219 558.628906 C 237.757812 578.539062 234.714844 605.359375 239 629.417969 C 242.316406 656.238281 250.613281 682.507812 263.609375 706.289062 C 269.96875 716.382812 277.433594 727.304688 289.460938 731.039062 C 306.050781 736.847656 325.546875 737.121094 341.582031 729.519531 C 345.867188 735.601562 353.195312 739.472656 360.386719 740.71875 C 362.875 740.71875 365.363281 740.71875 367.988281 740.71875 C 376.976562 740.441406 384.992188 734.773438 387.898438 726.199219 C 387.898438 726.0625 387.898438 726.0625 387.898438 726.0625 L 389.28125 721.359375 C 389.417969 719.703125 389.417969 718.042969 389.417969 716.523438 C 394.117188 717.074219 401.167969 717.628906 407.667969 716.660156 C 407.667969 720.117188 407.804688 723.433594 408.359375 726.753906 C 408.496094 727.167969 408.496094 727.722656 408.632812 727.996094 C 408.632812 728.273438 408.773438 728.550781 408.773438 728.828125 C 409.878906 734.21875 413.886719 738.503906 419.140625 740.300781 C 431.03125 744.175781 444.441406 745.003906 455.363281 738.367188 C 459.371094 735.046875 463.796875 731.730469 466.285156 727.03125 C 469.742188 727.722656 473.199219 728.550781 476.65625 729.519531 C 482.738281 730.902344 488.957031 730.761719 495.042969 729.519531 C 509.003906 726.753906 521.171875 718.320312 529.464844 706.566406 C 532.09375 702.832031 534.445312 698.960938 536.242188 694.953125 C 542.875 694.675781 549.511719 693.15625 556.011719 691.632812 C 570.113281 687.488281 584.628906 683.753906 596.792969 675.183594 C 613.386719 665.089844 626.65625 650.433594 637.300781 634.394531 C 653.203125 609.507812 662.878906 581.164062 667.855469 552.128906 C 670.898438 536.089844 672.695312 519.363281 671.175781 502.769531 Z M 671.175781 502.769531 " fill-opacity="1" fill-rule="nonzero"/><path fill="#f3f6ef" d="M 657.074219 551.160156 C 655.828125 560.839844 652.511719 570.101562 650.160156 579.503906 C 647.671875 589.183594 644.214844 598.585938 639.789062 607.570312 C 631.082031 624.992188 620.988281 641.859375 605.917969 654.582031 C 588.636719 671.035156 565.273438 680.296875 541.769531 683.199219 C 548.960938 674.492188 550.203125 662.875 553.660156 652.507812 C 556.148438 642.691406 557.945312 632.460938 558.222656 622.367188 C 563.199219 621.8125 566.519531 617.113281 568.867188 612.964844 C 583.800781 599.136719 591.957031 579.917969 597.761719 560.839844 C 600.941406 547.84375 604.953125 534.847656 606.75 521.574219 C 611.3125 504.84375 607.164062 485.488281 617.808594 470.554688 C 622.09375 463.917969 630.390625 459.632812 638.269531 461.84375 C 648.085938 464.195312 654.167969 473.597656 657.347656 482.445312 C 664.125 504.84375 661.632812 528.625 657.074219 551.160156 Z M 454.671875 318.882812 C 453.703125 322.476562 448.867188 323.859375 445.824219 321.925781 C 441.125 319.4375 442.644531 311.417969 447.621094 310.171875 C 452.597656 308.238281 456.46875 314.734375 454.671875 318.882812 Z M 309.230469 328.976562 C 302.042969 331.742188 307.988281 344.324219 314.347656 340.726562 C 319.738281 336.996094 316.144531 325.105469 309.230469 328.976562 Z M 601.21875 317.363281 C 599.285156 321.511719 597.210938 325.65625 596.105469 330.21875 C 590.988281 333.675781 583.9375 333.125 578.683594 336.71875 C 575.089844 339.898438 579.375 346.671875 583.660156 344.597656 C 587.394531 343.078125 591.679688 342.527344 594.859375 339.898438 C 591.957031 348.746094 588.777344 357.734375 584.214844 365.890625 C 575.78125 363.125 567.070312 361.328125 558.359375 359.53125 C 553.105469 358.148438 550.066406 366.859375 555.597656 368.519531 C 563.476562 371.421875 572.046875 372.527344 580.203125 373.632812 C 575.917969 379.164062 547.4375 411.101562 526.976562 427.28125 C 516.886719 435.160156 505.273438 440.96875 493.382812 445.945312 C 468.773438 456.3125 442.089844 464.332031 415.546875 469.171875 C 401.722656 471.660156 387.757812 473.320312 373.65625 474.011719 C 361.214844 474.703125 344.902344 471.800781 333.011719 475.949219 C 330.246094 476.640625 329.832031 481.0625 332.457031 482.308594 C 335.914062 484.65625 340.476562 484.242188 344.347656 484.519531 C 372.964844 484.933594 401.722656 482.859375 429.785156 476.914062 C 453.011719 471.246094 475.824219 463.917969 497.808594 454.792969 C 500.570312 453.550781 503.613281 452.582031 505.550781 450.09375 C 505.550781 451.335938 502.644531 474.289062 503.613281 483.136719 C 503.75 494.199219 506.515625 504.980469 509.003906 515.628906 C 513.429688 526.136719 519.097656 536.503906 527.390625 544.523438 C 540.527344 558.074219 548.128906 576.738281 548.40625 595.542969 C 548.960938 603.976562 546.746094 612.273438 547.4375 620.707031 C 547.164062 637.574219 543.015625 654.167969 536.242188 669.652344 C 530.433594 683.890625 523.382812 697.996094 513.429688 709.886719 C 513.152344 710.160156 513.015625 710.4375 512.738281 710.714844 C 506.929688 715.832031 504.167969 715.691406 504.167969 715.691406 C 494.210938 718.734375 482.046875 723.160156 472.921875 716.105469 C 475.6875 693.570312 479.835938 671.171875 483.707031 648.773438 C 487.160156 631.351562 492 614.207031 495.179688 596.789062 C 499.328125 578.121094 501.402344 559.042969 504.71875 540.238281 C 505.410156 537.058594 501.679688 533.1875 498.496094 535.261719 C 494.210938 538.441406 494.765625 544.109375 493.796875 548.671875 C 488.957031 574.390625 484.949219 600.382812 478.453125 625.824219 C 474.582031 646.148438 469.464844 666.332031 467.667969 687.070312 C 464.902344 698.6875 463.660156 711.128906 456.609375 721.085938 C 448.175781 734.632812 432.828125 731.867188 430.339844 731.453125 C 424.535156 730.347656 420.109375 725.648438 419.417969 719.839844 C 417.757812 707.121094 418.3125 694.125 419.417969 681.265625 C 420.386719 650.019531 425.640625 619.1875 427.4375 587.9375 C 427.714844 583.929688 422.734375 581.71875 420.109375 584.621094 C 419.554688 585.3125 419.140625 586.140625 418.863281 587.109375 C 418.035156 600.660156 415.683594 613.933594 414.304688 627.34375 C 412.644531 649.050781 410.847656 670.757812 408.910156 692.324219 C 408.773438 696.886719 408.21875 701.589844 407.804688 706.289062 L 388.171875 704.90625 C 387.066406 688.179688 382.917969 638.957031 383.472656 616.28125 C 384.300781 606.878906 384.027344 597.480469 384.164062 588.078125 C 384.300781 584.898438 385.132812 581.578125 383.609375 578.539062 C 380.847656 576.601562 376.835938 578.121094 376.007812 581.441406 C 375.730469 588.214844 374.488281 594.992188 374.488281 601.765625 C 374.347656 618.910156 372.550781 636.054688 374.488281 653.058594 C 375.316406 674.628906 380.15625 696.472656 377.527344 717.90625 C 376.835938 723.710938 372.414062 728.414062 366.605469 729.519531 L 366.46875 729.519531 C 363.289062 730.070312 359.96875 729.792969 356.929688 728.550781 L 354.023438 727.445312 C 341.722656 718.457031 337.710938 703.109375 330.660156 690.253906 C 308.265625 643.242188 303.703125 543.558594 304.945312 535.816406 C 306.605469 530.976562 298.035156 529.039062 296.789062 533.601562 C 295.820312 537.058594 295.960938 540.515625 295.683594 544.109375 C 296.652344 587.664062 302.179688 631.214844 313.792969 673.382812 C 318.910156 689.976562 327.480469 705.046875 334.808594 720.667969 C 330.246094 722.605469 325.269531 723.296875 320.570312 724.539062 C 309.09375 727.445312 292.78125 722.46875 292.78125 722.46875 C 279.507812 716.382812 271.074219 703.386719 265.820312 690.113281 C 258.078125 674.765625 254.070312 657.898438 249.507812 641.445312 C 245.773438 621.8125 244.117188 600.9375 250.476562 581.71875 C 255.175781 568.445312 265.542969 558.628906 273.285156 547.289062 C 280.753906 533.742188 284.898438 518.808594 289.046875 504.015625 C 290.566406 495.304688 292.226562 486.730469 294.578125 478.296875 C 299.554688 479.820312 304.53125 481.339844 309.648438 481.476562 C 312.273438 481.617188 312.964844 478.710938 314.207031 477.054688 C 313.65625 475.53125 313.519531 473.320312 311.71875 472.765625 C 306.46875 470.96875 300.660156 470.695312 295.546875 468.203125 C 281.027344 466.269531 267.894531 458.664062 255.039062 452.027344 C 243.007812 444.5625 231.8125 435.851562 221.441406 426.171875 C 225.589844 422.71875 232.085938 417.738281 229.460938 411.792969 C 222.6875 408.753906 218.539062 417.464844 213.699219 420.644531 C 205.957031 416.21875 198.492188 410.828125 192.269531 404.191406 C 194.757812 402.53125 197.25 399.902344 196.832031 396.585938 C 195.726562 394.375 193.652344 391.46875 190.75 392.574219 C 188.261719 393.683594 185.910156 395.203125 183.285156 396.171875 C 175.957031 387.183594 178.167969 372.941406 187.984375 366.722656 C 189.507812 366.722656 191.164062 366.996094 192.410156 367.828125 C 195.726562 366.445312 199.046875 363.816406 198.628906 359.667969 C 198.078125 350.40625 200.566406 341.417969 201.949219 332.292969 C 202.226562 328.976562 200.011719 326.210938 199.046875 323.03125 C 191.304688 300.078125 185.636719 276.4375 180.519531 252.792969 C 177.203125 226.109375 173.746094 199.285156 175.679688 172.324219 C 176.785156 158.914062 177.753906 145.503906 179.414062 132.230469 C 180.519531 123.933594 183.148438 115.363281 189.367188 109.554688 C 191.164062 107.621094 194.207031 108.585938 196.417969 109.003906 C 223.792969 117.851562 244.117188 137.761719 265.269531 154.90625 C 275.5 164.03125 285.730469 173.015625 295.820312 182.28125 C 293.332031 185.183594 291.398438 188.640625 292.367188 192.652344 C 296.789062 195.96875 301.351562 192.097656 304.253906 188.777344 C 325.546875 175.644531 351.398438 174.398438 375.59375 174.953125 C 384.992188 175.921875 394.671875 176.335938 403.796875 179.101562 C 408.359375 180.484375 411.125 176.199219 413.613281 173.292969 C 435.179688 145.78125 456.46875 117.296875 484.8125 96.421875 C 494.765625 88.261719 505.824219 81.351562 517.714844 76.648438 C 520.617188 75.128906 524.074219 76.234375 526.011719 78.722656 C 533.613281 91.441406 537.484375 105.683594 542.183594 119.648438 C 551.171875 151.308594 559.742188 183.386719 560.710938 216.429688 C 560.574219 224.589844 558.5 254.453125 559.742188 256.664062 C 568.175781 268.140625 574.949219 287.914062 577.855469 302.152344 L 579.652344 309.203125 L 589.050781 309.203125 C 593.339844 309.066406 598.175781 308.238281 601.773438 311.277344 C 603.429688 312.800781 602.046875 315.425781 601.21875 317.363281 Z M 267.617188 201.5 C 264.714844 199.425781 260.015625 200.117188 257.664062 203.160156 C 250.75 188.640625 249.367188 187.398438 243.5625 180.34375 C 236.789062 171.636719 229.046875 162.648438 219.367188 156.425781 C 215.914062 154.074219 211.351562 158.363281 213.839844 161.679688 C 214.667969 162.785156 215.636719 163.890625 216.464844 165 C 229.183594 178.269531 235.265625 180.070312 249.921875 207.996094 C 213.285156 234.542969 220.613281 242.976562 221.855469 243.253906 C 223.515625 243.667969 231.949219 227.769531 267.480469 204.957031 C 268.585938 203.988281 268.722656 202.328125 267.617188 201.5 Z M 331.628906 347.089844 C 330.800781 337.273438 327.894531 326.902344 320.429688 320.128906 C 316.558594 317.363281 311.445312 315.289062 306.605469 316.945312 C 302.042969 318.328125 299.140625 322.476562 298.035156 326.902344 C 294.855469 337.6875 296.375 349.4375 300.246094 359.945312 C 303.011719 368.519531 312.828125 373.773438 321.535156 372.390625 C 330.523438 367.550781 332.597656 356.351562 331.628906 347.089844 Z M 430.753906 378.058594 C 430.894531 375.707031 428.957031 372.527344 426.191406 373.359375 C 422.460938 374.050781 421.90625 378.472656 419.972656 380.960938 C 414.855469 389.257812 398.820312 385.941406 398.679688 375.847656 C 401.308594 368.933594 406.285156 361.191406 402.828125 353.726562 C 394.117188 347.78125 384.027344 354 375.453125 357.179688 C 373.65625 365.613281 382.367188 370.59375 385.960938 376.953125 C 386.238281 385.109375 379.738281 393.128906 371.445312 393.265625 C 367.019531 393.820312 365.222656 387.320312 360.523438 388.429688 C 355.960938 390.503906 357.480469 397.554688 360.660156 400.179688 C 372.414062 408.0625 391.628906 399.628906 392.597656 385.25 C 395.777344 392.574219 404.347656 396.171875 412.089844 395.757812 C 421.769531 396.308594 431.308594 388.011719 430.753906 378.058594 Z M 470.292969 333.398438 C 469.605469 324 467.53125 314.457031 462.414062 306.4375 C 458.683594 300.910156 451.628906 297.039062 444.996094 299.386719 C 437.945312 301.324219 434.488281 308.789062 433.933594 315.425781 C 433.105469 324.691406 433.519531 334.507812 437.253906 343.21875 C 439.464844 348.746094 442.78125 354.691406 448.589844 357.042969 C 453.429688 357.042969 459.234375 357.871094 463.105469 354.277344 C 469.464844 349.578125 470.710938 340.867188 470.292969 333.398438 Z M 467.253906 182.832031 C 477.070312 152.96875 482.738281 150.066406 493.105469 134.855469 C 493.660156 133.613281 494.488281 132.367188 495.042969 131.125 C 496.976562 127.53125 491.722656 124.074219 488.683594 126.976562 C 480.109375 134.71875 474.027344 144.949219 468.914062 154.628906 C 464.488281 162.507812 463.242188 164.03125 458.820312 179.515625 C 455.917969 176.890625 451.214844 177.027344 448.726562 179.515625 C 447.761719 180.484375 448.175781 182.144531 449.558594 182.695312 C 488.40625 199.285156 499.328125 213.527344 500.847656 212.835938 C 501.953125 212.421875 507.761719 203.019531 467.253906 182.832031 Z M 454.671875 318.882812 C 453.703125 322.476562 448.867188 323.859375 445.824219 321.925781 C 441.125 319.4375 442.644531 311.417969 447.621094 310.171875 C 452.597656 308.238281 456.46875 314.734375 454.671875 318.882812 Z M 309.230469 328.976562 C 302.042969 331.742188 307.988281 344.324219 314.347656 340.726562 C 319.738281 336.996094 316.144531 325.105469 309.230469 328.976562 Z M 601.21875 317.363281 C 599.285156 321.511719 597.210938 325.65625 596.105469 330.21875 C 590.988281 333.675781 583.9375 333.125 578.683594 336.71875 C 575.089844 339.898438 579.375 346.671875 583.660156 344.597656 C 587.394531 343.078125 591.679688 342.527344 594.859375 339.898438 C 591.957031 348.746094 588.777344 357.734375 584.214844 365.890625 C 575.78125 363.125 567.070312 361.328125 558.359375 359.53125 C 553.105469 358.148438 550.066406 366.859375 555.597656 368.519531 C 563.476562 371.421875 572.046875 372.527344 580.203125 373.632812 C 575.917969 379.164062 547.4375 411.101562 526.976562 427.28125 C 516.886719 435.160156 505.273438 440.96875 493.382812 445.945312 C 468.773438 456.3125 442.089844 464.332031 415.546875 469.171875 C 401.722656 471.660156 387.757812 473.320312 373.65625 474.011719 C 361.214844 474.703125 344.902344 471.800781 333.011719 475.949219 C 330.246094 476.640625 329.832031 481.0625 332.457031 482.308594 C 335.914062 484.65625 340.476562 484.242188 344.347656 484.519531 C 372.964844 484.933594 401.722656 482.859375 429.785156 476.914062 C 453.011719 471.246094 475.824219 463.917969 497.808594 454.792969 C 500.570312 453.550781 503.613281 452.582031 505.550781 450.09375 C 505.550781 451.335938 502.644531 474.289062 503.613281 483.136719 C 503.75 494.199219 506.515625 504.980469 509.003906 515.628906 C 513.429688 526.136719 519.097656 536.503906 527.390625 544.523438 C 540.527344 558.074219 548.128906 576.738281 548.40625 595.542969 C 548.960938 603.976562 546.746094 612.273438 547.4375 620.707031 C 547.164062 637.574219 543.015625 654.167969 536.242188 669.652344 C 530.433594 683.890625 523.382812 697.996094 513.429688 709.886719 C 513.152344 710.160156 513.015625 710.4375 512.738281 710.714844 C 506.929688 715.832031 504.167969 715.691406 504.167969 715.691406 C 494.210938 718.734375 482.046875 723.160156 472.921875 716.105469 C 475.6875 693.570312 479.835938 671.171875 483.707031 648.773438 C 487.160156 631.351562 492 614.207031 495.179688 596.789062 C 499.328125 578.121094 501.402344 559.042969 504.71875 540.238281 C 505.410156 537.058594 501.679688 533.1875 498.496094 535.261719 C 494.210938 538.441406 494.765625 544.109375 493.796875 548.671875 C 488.957031 574.390625 484.949219 600.382812 478.453125 625.824219 C 474.582031 646.148438 469.464844 666.332031 467.667969 687.070312 C 464.902344 698.6875 463.660156 711.128906 456.609375 721.085938 C 448.175781 734.632812 432.828125 731.867188 430.339844 731.453125 C 424.535156 730.347656 420.109375 725.648438 419.417969 719.839844 C 417.757812 707.121094 418.3125 694.125 419.417969 681.265625 C 420.386719 650.019531 425.640625 619.1875 427.4375 587.9375 C 427.714844 583.929688 422.734375 581.71875 420.109375 584.621094 C 419.554688 585.3125 419.140625 586.140625 418.863281 587.109375 C 418.035156 600.660156 415.683594 613.933594 414.304688 627.34375 C 412.644531 649.050781 410.847656 670.757812 408.910156 692.324219 C 408.773438 696.886719 408.21875 701.589844 407.804688 706.289062 L 388.171875 704.90625 C 387.066406 688.179688 382.917969 638.957031 383.472656 616.28125 C 384.300781 606.878906 384.027344 597.480469 384.164062 588.078125 C 384.300781 584.898438 385.132812 581.578125 383.609375 578.539062 C 380.847656 576.601562 376.835938 578.121094 376.007812 581.441406 C 375.730469 588.214844 374.488281 594.992188 374.488281 601.765625 C 374.347656 618.910156 372.550781 636.054688 374.488281 653.058594 C 375.316406 674.628906 380.15625 696.472656 377.527344 717.90625 C 376.835938 723.710938 372.414062 728.414062 366.605469 729.519531 L 366.46875 729.519531 C 363.289062 730.070312 359.96875 729.792969 356.929688 728.550781 L 354.023438 727.445312 C 341.722656 718.457031 337.710938 703.109375 330.660156 690.253906 C 308.265625 643.242188 303.703125 543.558594 304.945312 535.816406 C 306.605469 530.976562 298.035156 529.039062 296.789062 533.601562 C 295.820312 537.058594 295.960938 540.515625 295.683594 544.109375 C 296.652344 587.664062 302.179688 631.214844 313.792969 673.382812 C 318.910156 689.976562 327.480469 705.046875 334.808594 720.667969 C 330.246094 722.605469 325.269531 723.296875 320.570312 724.539062 C 309.09375 727.445312 292.78125 722.46875 292.78125 722.46875 C 279.507812 716.382812 271.074219 703.386719 265.820312 690.113281 C 258.078125 674.765625 254.070312 657.898438 249.507812 641.445312 C 245.773438 621.8125 244.117188 600.9375 250.476562 581.71875 C 255.175781 568.445312 265.542969 558.628906 273.285156 547.289062 C 280.753906 533.742188 284.898438 518.808594 289.046875 504.015625 C 290.566406 495.304688 292.226562 486.730469 294.578125 478.296875 C 299.554688 479.820312 304.53125 481.339844 309.648438 481.476562 C 312.273438 481.617188 312.964844 478.710938 314.207031 477.054688 C 313.65625 475.53125 313.519531 473.320312 311.71875 472.765625 C 306.46875 470.96875 300.660156 470.695312 295.546875 468.203125 C 281.027344 466.269531 267.894531 458.664062 255.039062 452.027344 C 243.007812 444.5625 231.8125 435.851562 221.441406 426.171875 C 225.589844 422.71875 232.085938 417.738281 229.460938 411.792969 C 222.6875 408.753906 218.539062 417.464844 213.699219 420.644531 C 205.957031 416.21875 198.492188 410.828125 192.269531 404.191406 C 194.757812 402.53125 197.25 399.902344 196.832031 396.585938 C 195.726562 394.375 193.652344 391.46875 190.75 392.574219 C 188.261719 393.683594 185.910156 395.203125 183.285156 396.171875 C 175.957031 387.183594 178.167969 372.941406 187.984375 366.722656 C 189.507812 366.722656 191.164062 366.996094 192.410156 367.828125 C 195.726562 366.445312 199.046875 363.816406 198.628906 359.667969 C 198.078125 350.40625 200.566406 341.417969 201.949219 332.292969 C 202.226562 328.976562 200.011719 326.210938 199.046875 323.03125 C 191.304688 300.078125 185.636719 276.4375 180.519531 252.792969 C 177.203125 226.109375 173.746094 199.285156 175.679688 172.324219 C 176.785156 158.914062 177.753906 145.503906 179.414062 132.230469 C 180.519531 123.933594 183.148438 115.363281 189.367188 109.554688 C 191.164062 107.621094 194.207031 108.585938 196.417969 109.003906 C 223.792969 117.851562 244.117188 137.761719 265.269531 154.90625 C 275.5 164.03125 285.730469 173.015625 295.820312 182.28125 C 293.332031 185.183594 291.398438 188.640625 292.367188 192.652344 C 296.789062 195.96875 301.351562 192.097656 304.253906 188.777344 C 325.546875 175.644531 351.398438 174.398438 375.59375 174.953125 C 384.992188 175.921875 394.671875 176.335938 403.796875 179.101562 C 408.359375 180.484375 411.125 176.199219 413.613281 173.292969 C 435.179688 145.78125 456.46875 117.296875 484.8125 96.421875 C 494.765625 88.261719 505.824219 81.351562 517.714844 76.648438 C 520.617188 75.128906 524.074219 76.234375 526.011719 78.722656 C 533.613281 91.441406 537.484375 105.683594 542.183594 119.648438 C 551.171875 151.308594 559.742188 183.386719 560.710938 216.429688 C 560.574219 224.589844 558.5 254.453125 559.742188 256.664062 C 568.175781 268.140625 574.949219 287.914062 577.855469 302.152344 L 579.652344 309.203125 L 589.050781 309.203125 C 593.339844 309.066406 598.175781 308.238281 601.773438 311.277344 C 603.429688 312.800781 602.046875 315.425781 601.21875 317.363281 Z M 267.617188 201.5 C 264.714844 199.425781 260.015625 200.117188 257.664062 203.160156 C 250.75 188.640625 249.367188 187.398438 243.5625 180.34375 C 236.789062 171.636719 229.046875 162.648438 219.367188 156.425781 C 215.914062 154.074219 211.351562 158.363281 213.839844 161.679688 C 214.667969 162.785156 215.636719 163.890625 216.464844 165 C 229.183594 178.269531 235.265625 180.070312 249.921875 207.996094 C 213.285156 234.542969 220.613281 242.976562 221.855469 243.253906 C 223.515625 243.667969 231.949219 227.769531 267.480469 204.957031 C 268.585938 203.988281 268.722656 202.328125 267.617188 201.5 Z M 331.628906 347.089844 C 330.800781 337.273438 327.894531 326.902344 320.429688 320.128906 C 316.558594 317.363281 311.445312 315.289062 306.605469 316.945312 C 302.042969 318.328125 299.140625 322.476562 298.035156 326.902344 C 294.855469 337.6875 296.375 349.4375 300.246094 359.945312 C 303.011719 368.519531 312.828125 373.773438 321.535156 372.390625 C 330.523438 367.550781 332.597656 356.351562 331.628906 347.089844 Z M 430.753906 378.058594 C 430.894531 375.707031 428.957031 372.527344 426.191406 373.359375 C 422.460938 374.050781 421.90625 378.472656 419.972656 380.960938 C 414.855469 389.257812 398.820312 385.941406 398.679688 375.847656 C 401.308594 368.933594 406.285156 361.191406 402.828125 353.726562 C 394.117188 347.78125 384.027344 354 375.453125 357.179688 C 373.65625 365.613281 382.367188 370.59375 385.960938 376.953125 C 386.238281 385.109375 379.738281 393.128906 371.445312 393.265625 C 367.019531 393.820312 365.222656 387.320312 360.523438 388.429688 C 355.960938 390.503906 357.480469 397.554688 360.660156 400.179688 C 372.414062 408.0625 391.628906 399.628906 392.597656 385.25 C 395.777344 392.574219 404.347656 396.171875 412.089844 395.757812 C 421.769531 396.308594 431.308594 388.011719 430.753906 378.058594 Z M 470.292969 333.398438 C 469.605469 324 467.53125 314.457031 462.414062 306.4375 C 458.683594 300.910156 451.628906 297.039062 444.996094 299.386719 C 437.945312 301.324219 434.488281 308.789062 433.933594 315.425781 C 433.105469 324.691406 433.519531 334.507812 437.253906 343.21875 C 439.464844 348.746094 442.78125 354.691406 448.589844 357.042969 C 453.429688 357.042969 459.234375 357.871094 463.105469 354.277344 C 469.464844 349.578125 470.710938 340.867188 470.292969 333.398438 Z M 467.253906 182.832031 C 477.070312 152.96875 482.738281 150.066406 493.105469 134.855469 C 493.660156 133.613281 494.488281 132.367188 495.042969 131.125 C 496.976562 127.53125 491.722656 124.074219 488.683594 126.976562 C 480.109375 134.71875 474.027344 144.949219 468.914062 154.628906 C 464.488281 162.507812 463.242188 164.03125 458.820312 179.515625 C 455.917969 176.890625 451.214844 177.027344 448.726562 179.515625 C 447.761719 180.484375 448.175781 182.144531 449.558594 182.695312 C 488.40625 199.285156 499.328125 213.527344 500.847656 212.835938 C 501.953125 212.421875 507.761719 203.019531 467.253906 182.832031 Z M 467.253906 182.832031 " fill-opacity="1" fill-rule="nonzero"/><path fill="#cfc594" d="M 399.09375 498.761719 C 326.375 505.949219 295.40625 478.4375 295.40625 478.4375 C 300.382812 479.957031 305.359375 481.476562 310.476562 481.617188 C 311.167969 481.617188 311.859375 481.476562 312.273438 481.0625 C 322.640625 482.585938 335.085938 484.242188 341.304688 484.382812 C 342.414062 484.382812 343.519531 484.519531 344.484375 484.519531 C 373.105469 484.933594 401.859375 482.859375 429.925781 476.914062 C 453.152344 471.246094 475.964844 463.917969 497.945312 454.792969 C 500.710938 453.550781 503.75 452.582031 505.6875 450.09375 C 505.964844 450.09375 471.816406 491.433594 399.09375 498.761719 Z M 474.996094 704.214844 C 474.441406 708.226562 473.890625 712.234375 473.335938 716.246094 C 482.460938 723.296875 494.765625 719.011719 504.582031 715.832031 C 504.582031 715.832031 507.347656 715.96875 513.152344 710.851562 C 513.429688 710.578125 513.707031 710.300781 513.84375 710.023438 C 523.796875 698.132812 530.710938 684.03125 536.65625 669.789062 C 543.292969 654.304688 547.4375 637.714844 547.855469 620.84375 C 547.164062 612.410156 549.375 604.117188 548.820312 595.679688 C 521.585938 716.660156 475.6875 704.355469 474.996094 704.214844 Z M 293.332031 722.742188 C 293.332031 722.742188 309.648438 727.722656 321.121094 724.816406 C 325.960938 723.574219 330.800781 722.742188 335.363281 720.945312 C 333.148438 716.105469 330.800781 711.40625 328.449219 706.707031 C 328.449219 706.707031 309.371094 713.617188 290.429688 696.613281 C 271.488281 679.605469 247.433594 604.253906 247.15625 603.5625 C 246.328125 616.28125 247.847656 629.277344 250.199219 641.722656 C 254.761719 658.175781 258.769531 675.042969 266.511719 690.390625 C 271.765625 703.664062 280.0625 716.660156 293.332031 722.742188 Z M 467.253906 691.496094 C 467.253906 691.496094 456.054688 703.800781 440.433594 703.109375 C 424.671875 702.417969 419.417969 688.730469 419.417969 688.730469 C 418.726562 699.238281 418.589844 709.886719 419.972656 720.253906 C 420.800781 726.0625 425.226562 730.761719 430.894531 731.867188 C 433.382812 732.285156 448.726562 735.046875 457.160156 721.5 C 463.382812 712.652344 465.042969 701.867188 467.253906 691.496094 Z M 388.589844 705.183594 L 408.21875 706.566406 C 408.632812 702.972656 408.910156 699.378906 409.1875 695.78125 L 389.140625 695.78125 L 387.757812 695.089844 C 388.171875 699.101562 388.449219 702.558594 388.589844 705.183594 Z M 357.480469 728.828125 C 360.523438 730.070312 363.839844 730.347656 367.019531 729.792969 L 367.160156 729.792969 C 372.964844 728.6875 377.390625 723.988281 378.082031 718.179688 C 379.1875 708.777344 378.910156 699.378906 378.082031 689.835938 C 378.082031 689.835938 374.210938 698.410156 357.621094 701.035156 C 341.03125 703.664062 331.351562 690.390625 331.351562 690.390625 C 338.402344 703.25 342.273438 718.597656 354.714844 727.582031 Z M 541.769531 683.199219 C 565.273438 680.296875 588.636719 671.035156 605.917969 654.582031 C 620.988281 642 631.082031 624.992188 639.789062 607.570312 C 644.214844 598.585938 647.808594 589.183594 650.160156 579.503906 C 652.511719 570.101562 655.691406 560.839844 657.074219 551.160156 C 659.421875 539.6875 661.21875 527.796875 661.496094 515.90625 C 660.527344 521.160156 645.320312 607.019531 602.464844 638.128906 C 558.222656 670.203125 558.085938 622.226562 558.085938 622.226562 C 557.945312 632.460938 556.148438 642.550781 553.523438 652.367188 C 550.203125 662.875 548.820312 674.628906 541.769531 683.199219 Z M 541.769531 683.199219 " fill-opacity="1" fill-rule="nonzero"/><path fill="#dab185" d="M 579.511719 309.066406 L 577.714844 302.015625 C 574.8125 287.773438 568.039062 268.003906 559.605469 256.527344 C 558.359375 254.316406 560.433594 224.449219 560.574219 216.292969 C 559.742188 183.25 551.035156 151.171875 542.046875 119.511719 C 537.347656 105.683594 533.476562 91.304688 525.871094 78.585938 C 523.9375 76.097656 520.480469 75.128906 517.578125 76.511719 C 505.550781 81.074219 494.488281 87.988281 484.671875 96.28125 C 456.332031 117.160156 435.039062 145.640625 413.472656 173.15625 C 410.984375 176.058594 408.21875 180.34375 403.65625 178.960938 C 394.53125 176.199219 384.855469 175.78125 375.453125 174.816406 C 351.121094 174.261719 325.269531 175.644531 304.117188 188.640625 C 304.117188 188.640625 389.832031 180.898438 400.753906 230.121094 C 411.675781 279.203125 377.941406 336.304688 448.175781 367.6875 C 518.40625 399.074219 584.90625 355.382812 579.511719 309.066406 Z M 463.105469 354.554688 C 459.234375 358.148438 453.429688 357.320312 448.589844 357.320312 C 442.78125 354.832031 439.464844 349.023438 437.253906 343.492188 C 433.519531 334.78125 433.105469 325.105469 433.933594 315.703125 C 434.488281 308.929688 437.945312 301.460938 444.996094 299.664062 C 451.628906 297.3125 458.683594 301.183594 462.414062 306.714844 C 467.667969 314.597656 469.605469 324.273438 470.292969 333.675781 C 470.710938 340.867188 469.464844 349.578125 463.105469 354.554688 Z M 500.710938 212.976562 C 499.050781 213.667969 488.265625 199.425781 449.417969 182.832031 C 448.035156 182.28125 447.621094 180.621094 448.589844 179.652344 C 451.078125 177.164062 455.917969 177.027344 458.683594 179.652344 C 463.105469 164.167969 464.351562 162.785156 468.773438 154.765625 C 473.890625 145.089844 479.972656 134.855469 488.542969 127.113281 C 491.585938 124.210938 496.839844 127.667969 494.902344 131.261719 C 494.210938 132.507812 493.519531 133.75 492.96875 134.996094 C 482.738281 150.203125 476.929688 152.96875 467.113281 182.972656 C 507.761719 203.019531 501.953125 212.421875 500.710938 212.976562 Z M 606.609375 521.574219 C 608.960938 513 608.960938 503.601562 609.929688 494.472656 C 613.386719 499.589844 619.746094 506.226562 629.007812 507.332031 C 644.078125 509.128906 646.703125 511.066406 644.078125 520.882812 C 641.449219 530.835938 616.011719 531.667969 606.609375 521.574219 Z M 635.644531 560.839844 C 633.015625 570.65625 607.578125 571.484375 598.175781 561.394531 C 598.039062 561.253906 597.902344 560.976562 597.761719 560.839844 C 599.699219 552.957031 601.910156 545.214844 603.707031 537.195312 C 607.441406 541.621094 612.96875 546.324219 620.574219 547.152344 C 635.644531 549.085938 638.269531 551.023438 635.644531 560.839844 Z M 635.644531 560.839844 " fill-opacity="1" fill-rule="nonzero"/><path fill="#e086bc" d="M 221.304688 235.925781 C 198.078125 208.964844 213.007812 158.777344 213.007812 158.777344 C 213.007812 158.777344 213.148438 158.777344 213.148438 158.777344 C 212.871094 159.605469 213.007812 160.710938 213.699219 161.542969 C 214.53125 162.648438 215.496094 163.753906 216.328125 164.859375 C 229.046875 178.132812 235.128906 179.929688 249.785156 207.859375 C 230.84375 221.546875 223.65625 230.535156 221.304688 235.925781 Z M 493.105469 134.855469 C 482.875 150.066406 477.070312 152.832031 467.253906 182.832031 C 497.253906 197.628906 501.816406 206.753906 501.679688 210.625 C 519.511719 166.933594 495.042969 131.125 495.042969 131.125 C 494.488281 132.507812 493.660156 133.75 493.105469 134.855469 Z M 493.105469 134.855469 " fill-opacity="1" fill-rule="nonzero"/></svg>